<?xml version="1.0" encoding="UTF-8"?>
<svg id="Layer_1" data-name="Layer 1" xmlns="http://www.w3.org/2000/svg" viewBox="-103.74 -96.42 853.62 868.91">
  <defs>
    <style>
      .cls-1 {
        fill: #fff;
      }
    </style>
  </defs>
  <path class="cls-1" d="M588.65,563.38c10.23.91,19.04.44,28.47.17l23.48-.66,34.78-1.36c10.84-.42,21.41-.72,32.18-.67,1.13,0,1.9,1.29,2.01,1.9.17.99-1.1,1.58-2.52,1.64l-59.22,2.39-24.31.68-32.18.8c-5.88.15-3.67,8.44-6.7,15.76,4.38,1.18,8.14,2.21,12.45,2.88l54.43,8.48c2.09.33,4.25,1.12,3.69,3.54-5.08.24-9.81-.88-14.93-1.67l-56.31-8.69-7.95,15.24,48.23,18.8,25.32,10,33.88,13.1c.64.25,1,1.07,1.37,1.25.47.23.14,1.16-.11,1.45-1.66,1.89-29.49-9.01-33.92-10.79l-61.82-24.87c-5.15-2.07-9.91-3.89-15.29-5.42l-7.79,10.03c-.61.79-1.61,1.2-1.5,2.14.13,1.01.9,1.91,2.02,2.61l52.39,32.89c4.02,2.52,8.16,3.7,11.81,7.13-6.59.52-6.63.83-12.61-2.88l-57.16-35.39c-3.79,1.52-5.94,4.72-8.89,7.26-2.35,2.03-5.11,3.39-6.47,6.87l27.25,26.98,16.75,16.2c-2.04.47-4.59.65-6.02-.71l-13.04-12.41-15.01-14.27c-4.53-4.3-8.53-9.02-14.03-12.22-1.72-1-13.33,6.6-16.15,8.52,10.22,18.09,21.8,33.56,32.01,51.16,1.13,1.95.52,5.28.1,7.49l-22.64-35.56-13.95-22.11c-2.7,1.22-5.23,3.03-7.85,2.47-1.43-.31-.75-2.98-.11-4.09,11.71-20.14,20.01-41.43,23.1-64.76,2.53-19.09-1.02-37.53-9.21-54.73s-19.89-29.79-34.73-40.5c-12.2-8.8-24.51-16.15-38.65-21.38-2.83-1.05-5.75-2.32-7.53-4.66,1.92-2.37,4.57-2.62,7.66-3.94l-7.13-64.86c-.39-3.52-.46-6.8-.04-10.18.09-.69,1.99-.63,2.13-.12.15.56.87,1.38.96,2.26l2.87,26.25,3.25,30.29c.49,4.53.02,9.26,1.83,13.51.81,1.89,3.73.91,5.18.66,4.44-.77,8.6-.6,12.8-2.65,2.65-9.86,3.66-19.39,5.08-29.63l11.63-83.98c.11-.82.64-1.23.74-1.58.16-.52,1.94-.05,1.87.52l-4.22,38.07-9.52,76.83c7.07.74,13.8,1,21,.39l10.71-29.31,13.38-36.79c1.33-3.67,3.74-11.41,6.7-11.53,3.29-.13-6.01,20.56-7.27,24.01l-10.02,27.54c-3.32,9.12-6.67,17.65-8.58,27.3l15.7,3.31c4.48-6.5,7.7-12.66,11.44-19.21l34.56-60.49c4.16-7.28,8.27-13.91,12.98-20.65.67-.96,1.73-1.07,2.59-.61.57.3.57,1.72.01,2.67l-19.38,32.95-16.51,29.26-21.33,37.62c4.69,2.65,9.36,5.11,14.54,6.8,5.46-4.06,9.68-10.31,14.72-15.73l6.9-7.42,9.77-10.47c5.87-6.28,11.89-12.17,18.17-18.42.73-.73,1.64,2.07,1.19,2.79-2.42,3.9-5.51,6.81-8.56,10.11l-10.1,10.93-9.4,10.12c-6.43,6.92-12.82,13.46-18.39,21.28l12.42,10.55,34.48-26.56c12.64-9.73,25.63-18.06,38.23-27.69l4.28-3.27,19.02-14.53c.69-.53,1.49-.27,2.1-.03,2.83,1.12-4.61,6.88-5.95,7.89l-22.23,16.72-34.45,25.5-15.71,12.05c-5.58,4.07-11.06,7.85-16.25,12.87l13.95,18.73,35.88-19.56c3.1-1.37,18.44-10.88,20.03-8.71.46.63.52,2.17-.51,2.73l-37.15,20.23c-5.48,2.98-10.42,5.88-15.87,9.36,1.11,3.91,2.9,7.29,5.71,10.75l69.96-24.36,59.72-21.1c1.1-.39,2.23-.12,2.46.63.26.84-.35,2-1.38,2.42-17.63,7.28-34.96,13.84-53.18,20.03l-76.94,26.15c.79,4.55,1,8.6,2.61,12.59.58,1.44,4.04,1.22,5.54.95l45.86-8.12c3.73-.66,7.51-1.69,11.1-.54.69.45-.64,2-1.46,2.21-9.41,2.46-18.71,3.66-28.31,5.43l-31.37,5.8.34,22.97ZM539.98,632.67c-2.02,1.5-4.13,3.36-5.48,5.92,4.15.54,5.39-3.48,7.68-5.08,9.11-6.36,17.06-14.24,24.21-23.22,9.94-12.48,16.12-26.68,17.95-42.74,1.67-14.67.73-29.48-3.88-43.82-3.79-11.81-10.78-22.54-18.56-32.13-8.58-10.57-19.34-18.68-31.74-23.82-6.37-2.64-12.47-5.18-19.27-6.25-12.6-1.98-25.3-3.52-38.43-1.2,28.18,4.11,53.49,13.86,75.3,31.1,15.84,12.51,26.15,31.25,28.04,51.13,2.98,31.32-15.51,67.37-35.82,90.12ZM481.44,466.94l1.59.06c.28.21.74.45,1.53.77,12.39,5.04,24.68,10.1,36.04,17.99,14.56,10.1,26.46,23.39,35.05,38.89,8.6,15.51,6,42.88,1.9,59.89-3.26,13.51-9.68,25.24-16.13,37.73-1.65,3.19-5.86,5.23-6.66,9.85,3.48-2.03,6.3-5.33,7.56-9.2,10.51-10.8,17.6-25.16,23.38-39.56,3.9-9.71,5.76-19.7,6.44-30.13,2.86-44.18-33.99-70.77-71.65-82.88-5.31-1.71-10.13-3.69-15.86-4.04l-.87-.05c-.43-.58-1.06-.68-2.34-.75-1.61-.09-3.2-1.17-5.34-.23,1.44,1.67,3.55,1.52,5.34,1.67ZM477.2,471.52c27.06,11.33,50.05,28.48,64.69,54.87,5.17,9.32,6.81,19.46,7.45,30.14,1.42,23.69-5.3,46.54-16.61,67.32-1.21,2.23-3.52,4.13-2.21,7.06,18.91-25.18,29.87-55.05,27.04-86.42-.55-6.06-3.62-11.38-5.28-17-1.99-6.73-5.54-11.81-10.15-17-7.27-8.2-14.5-15.9-23.96-21.81-12.3-7.69-25.21-14.43-39.6-18.12-1.39-.36-2.95-2.71-4.76-.65.76,1.03,1.91,1.15,3.37,1.6ZM489.55,482.91c8.74,6.87,17.38,13.57,24.94,22.24,21.95,25.18,29.95,59.04,22.72,91.62-1.17,5.29-2.75,9.9-3.42,15.38-1.47.86-2.01,2.82-1.97,4.77,2.72-.15,1.96-2.66,2.89-4.57,9.47-19.38,12.74-41.13,10.91-62.98-3.5-8.77-4.65-18.11-9.61-26.18-10.94-17.81-27.28-32.04-46.28-41.39-.52-1.26-1.79-2.35-3.76-1.85.36,1.85,1.94,2.19,3.58,2.96Z"/>
  <path class="cls-1" d="M412.1,752.49c-3.07,1.94-7.72,1.39-10.95.06l28.13-77.97-22.91-18.1c1.47-3.35,3.27-6.07,5.29-8.87,7.69,4.37,14.95,8.3,23.36,10.92l28.66-79.06c.94-2.58,2.64-4.26,4.83-4.48,2.35-.24,5.5.54,6.61,3.35l30.8,77.51,5.42,13.6,31.22,77.86c1.25,3.12-.48,6.25-2.66,7.53-2.44,1.44-5.13,1.36-7.83-.73l-93.74-72.73-26.24,71.12ZM495.38,656.91l-25.62-62.94-24.53,67.53c16.4,3.46,33.17,2.94,49.02-.95,1.6-.8,1.84-2.08,1.13-3.63ZM525.5,732.7l-25.12-63.16c-18.02,5.68-35.53,5.9-55.14,3.49l78.24,61.4c.9.45,1.24.92,1.91.47.49-.32.6-.91.1-2.2Z"/>
  <path class="cls-1" d="M422.73,482.43c-1.5-9.22-7.46-16-16.91-16.28.54-1.53,1.88-1.39,3.29-1.65,13.02-2.45,12.05-16.57,13.26-15.12,1.87,2.24-.05,12.31,17.27,16.09-9.98,1-15.43,7.13-16.91,16.96Z"/>
  <path class="cls-1" d="M405.74,493.11c-8.16,1.59-14.45,7.16-15.61,16.41-1.47-9.19-7.2-14.5-16.39-16.29,8.85-.99,14.03-6.66,15.77-15.33,3.93,9.04,5.34,12.16,16.23,15.21Z"/>
  <path class="cls-1" d="M361.6,588.55c-1.76-9.13-6.68-13.87-15.8-15.21,9.23-1.87,14.16-6.82,15.22-16.26,1.81,9.08,6.48,14.61,16.21,15.7-8.93,1.66-14.08,6.4-15.63,15.77Z"/>
  <path class="cls-1" d="M365.53,540.44c.14-1.64-.26-3.08-1.68-3.78-.33-.83-1.68-1.55-2.16-2.21-.99-1.35-2.08-2.06-3.78-2.41-.73-.15-1.37-1.29-2.36-1.07-.43-.49-1.26-.72-1.46-1.8,6.04-1.66,11.07-5.88,11.76-11.9.11-.96.03-2.35,1.43-3.53.1,4.8,2.64,7.87,5.51,11.05s6.15,2.94,10.63,4.59c-9.07,1.29-14.33,6.52-15.9,15.04l-1.99-3.98Z"/>
  <path class="cls-1" d="M389.6,611.86c-7.5,1.16-12.13,5.47-14.49,13.47-1.71-7.21-6.35-11.24-13.83-13.15,7.23-1.89,12.13-6.16,13-13.08,1.35.56,1.57,1.85,1.98,2.92,2.23,5.79,6.56,8.44,13.34,9.85Z"/>
  <path class="cls-1" d="M410.29,642.96c-7.68,2.32-11.49,5.72-13.29,13.15-1.85-7.11-6.22-11-13.33-12.59,7.24-2.05,11.53-6.11,12.86-13.37,2.1,7.13,6.81,11.94,13.76,12.81Z"/>
  <path class="cls-1" d="M721.66,560.53c1.78-.55,3.05.36,3.48,1.74.5,1.6.4,3.64-1.45,3.92-1.5.23-3.46-.24-4.04-1.77s.22-3.34,2.01-3.9Z"/>
  <path class="cls-1" d="M668.6,401.77c.04,2.03-.83,2.89-2.39,2.79-1.66-.11-3.21-.43-3.24-2.4-.02-1.32.86-2.89,2.53-3.43.86-.28,1.85-.02,2.41.04,1.29.14.67,1.95.69,3Z"/>
  <path class="cls-1" d="M594.71,347.97c-1.62.28-3.47-.03-4.02-1.18-.79-1.63.21-3.15,1.42-4.02,1.14-.82,3.08-.19,3.93,1.06.89,1.31.9,3.76-1.33,4.14Z"/>
  <path class="cls-1" d="M447.84,373.9c-1.74.9-3.77.61-4.5-.2-.79-.88-.69-2.66.02-3.61.55-.74,2.14-1.8,3.44-1.34,1.4.5,2.33,4.48,1.03,5.15Z"/>
  <path class="cls-1" d="M663.32,526.6c-.32,2.01-2.57,1.77-3.84,1.08-1.09-.6-1.67-2.07-1.13-3.45s2.02-2.7,3.74-1.69c1.08.63,1.51,2.3,1.23,4.07Z"/>
  <path class="cls-1" d="M643.77,471.62c-.24.84-.3,2.1-.78,2.04-.84-.1-4.37-1.53-4.39-4.06-.01-2.05,1.77-2.24,2.97-2.24,2.24.01,2.86,1.92,2.2,4.26Z"/>
  <path class="cls-1" d="M703.12,654.6c-1.04,1.08-2.54.85-3.42.58-1.15-.36-1.42-1.64-1.42-2.69,0-1.4,1.23-2.18,2.85-2.34,1.35-.14,2.51.07,3.01,1.34.29.73.05,2-1.03,3.12Z"/>
  <path class="cls-1" d="M499.23,326.52c.15,1.92-.35,3.34-1.83,3.59s-2.75-.58-2.92-2.54c-.16-1.8.56-2.57,2.06-3.14,1.33-.51,2.51-.32,2.7,2.1Z"/>
  <path class="cls-1" d="M729.88,465.53c1.36-1.15,3.13-.7,3.82.54.56,1,.9,2.74-.25,3.71-.91.77-2.68.68-3.37,0-.99-.96-1.53-3.12-.19-4.25Z"/>
  <path class="cls-1" d="M365.85,517.26c-.7,6.02-5.72,10.25-11.76,11.9.21,1.09,1.03,1.31,1.46,1.8-1.65.36-3.65.18-5.09-.97,2.04-3.56,6.79-3.02,9.08-5.41l3.83-3.99c.93-.97.34-3.99,2.49-3.34Z"/>
  <path class="cls-1" d="M540.38,365.39c-.06,2.05-.82,3.05-2.27,3.03s-2.22-.94-2.22-2.62c0-1.42.58-2.33,1.7-2.59,1.51-.36,2.87-.05,2.8,2.18Z"/>
  <path class="cls-1" d="M550.43,445.25c-1.52,1-2.54,1.14-3.31.64-.93-.6-1.86-1.66-1.12-2.91.85-1.43,2.41-1.85,3.44-1.39,1.28.57,2.21,2.85.99,3.66Z"/>
  <path class="cls-1" d="M668,601.98c-1.88.21-3.83-2.68-2.72-4.22,1.02-1.41,3.63-.83,3.89.24.41,1.6.82,3.75-1.17,3.98Z"/>
  <path class="cls-1" d="M598.88,410.33c-1.03-1.06-1.1-3.43-.18-4.46s2.27-.49,2.8.08c.86.92,1.15,2.49.74,3.29-.57,1.11-2.43,2.05-3.36,1.09Z"/>
  <path class="cls-1" d="M598.15,470.59c.99-.56,2.65-.7,3.32.33.54.83.17,2.49-.66,3.26s-2.49,1.13-3.11,0-.81-2.88.45-3.59Z"/>
  <path class="cls-1" d="M594.28,624.94c.21,1.43-1.89,1.94-2.74,1.89-1.1-.07-2.43-.86-2.28-2.28.11-1.06,1.26-1.92,2.07-1.82.93.11,2.72.58,2.96,2.21Z"/>
  <path class="cls-1" d="M604.05,601.71c1.26-.37,2.46.23,2.78,1.03.56,1.4-.06,2.7-1.03,3.04-1.35.49-2.96.4-3.27-.78-.35-1.33.08-2.87,1.51-3.3Z"/>
  <path class="cls-1" d="M607.45,550.28c.52,1.46.21,2.74-.73,3.15s-2.16.49-2.9-.63c-.97-1.46.49-3.65,1.78-3.88.61-.11,1.45.24,1.85,1.36Z"/>
  <path class="cls-1" d="M534.4,410.05c1.22-.55,2.41.9,2.62,1.73.28,1.09-.1,2.65-1.18,2.8-1.45.2-2.51.03-2.77-.98-.35-1.36-.27-2.83,1.34-3.55Z"/>
  <path class="cls-1" d="M464.62,413.19c1.26-.89,2.63-.49,3.17.41.6.99.8,2.43-.38,2.88-.86.33-2.38.96-2.95.44-.84-.77-.78-3.06.16-3.72Z"/>
  <path class="cls-1" d="M610.37,525.02c-1.58-.08-2.25-2.35-2.04-4.29.08-.76,2.07-.67,2.81-.5,1.12.26,1.51,1.58,1.33,2.56-.16.87-.6,2.3-2.1,2.23Z"/>
  <path class="cls-1" d="M609.72,578.37c.01,2.03-2.08,1.94-4.27,2.43-.07-.94-.51-2.75.3-4.09s3.96.08,3.97,1.67Z"/>
  <path class="cls-1" d="M583.9,485.85c-1.1.5-2.37.18-3.01-.22-.68-.43-1.33-1.62-.8-2.62.7-1.33,2.7-1.66,3.47-.81.83.92,1.61,3.08.34,3.65Z"/>
  <path class="cls-1" d="M558.05,675.97c1.62-.45,2.36.39,2.5,1.41.17,1.26,0,2.73-1.46,2.89-1.04.11-1.79-.3-2.47-1.52-.55-1-.67-2.2,1.43-2.78Z"/>
  <path class="cls-1" d="M507.42,384.36c1.18-.56,2.47-.02,2.75.92.34,1.11.32,2.6-1.04,3.1-.81.3-2.46.36-2.98-.95-.32-.8.19-2.56,1.27-3.07Z"/>
  <path class="cls-1" d="M493.63,433.93c1.45-.61,2.5.36,2.87,1.16.47,1.02-.22,2.43-.99,2.81-1.01.49-2.44.28-2.75-.46-.48-1.12-.58-2.91.87-3.51Z"/>
  <path class="cls-1" d="M627.34,551.67c-1.71.63-2.87-.28-3.07-1.35-.25-1.37.52-2.54,2.03-2.68,1.16-.11,2.09.3,2.4.99.52,1.16.17,2.47-1.36,3.03Z"/>
  <path class="cls-1" d="M500.18,412.05c-1.26-.09-.97-3.87.38-4.43,1.7-.7,2.7.25,2.9,1.57s-.2,3.08-3.28,2.86Z"/>
  <path class="cls-1" d="M563.84,421.24c1.1-.76,2.23-.43,2.76.65s1,2.19-.3,2.81c-1.13.54-2.36.8-3.03-.16-.73-1.05-.5-2.56.57-3.3Z"/>
  <path class="cls-1" d="M606.53,505.21c.19,1.12-1.95,1-2.62.71-.96-.43-2.13-1.45-1.88-2.71.24-1.19,1.64-1.38,2.44-1.18,1.1.27,1.65.82,2.05,3.18Z"/>
  <path class="cls-1" d="M527.72,433.71c-.07,1.49-.48,2.7-.89,3.23-.52.67-1.56.89-2.61.44-.7-.3-1.38-1.42-.69-2.76.62-1.2,3.65-1.68,4.18-.92Z"/>
  <path class="cls-1" d="M615.5,637.64c-.13,1.62-2.01,1.34-2.72,1.04-1.18-.5-1.93-2.16-1.06-3.33.66-.88,1.74-.77,2.31-.55.83.31,1.59,1.21,1.46,2.85Z"/>
  <path class="cls-1" d="M568.92,644.97c-.74.67-2.04.21-2.81.07-.71-.13-1.43-1.32-1-2.47.49-1.28,2.02-1.42,2.91-.84.95.63,2.04,2.2.9,3.24Z"/>
  <path class="cls-1" d="M575.54,401.65c1.11-.54,2.23-.22,2.71.42.64.84.62,2.28-.18,2.96-.75.64-2.51.52-2.97-.34-.4-.73-.54-2.57.45-3.05Z"/>
  <path class="cls-1" d="M628.69,608.41c.98-.57,2.28-.21,2.9.31s.65,2.34-.19,3.02c-.64.51-2.15.47-2.83-.44-.47-.64-.96-2.26.12-2.89Z"/>
  <path class="cls-1" d="M565.8,464c-1.44.12-.84-.61-.86-1.54-.06-1.44.48-2.35,1.73-2.43.87-.06,1.89.46,1.97,1.54.09,1.23-.71,2.27-2.83,2.44Z"/>
  <path class="cls-1" d="M651.35,616.01c1-.49,1.98-.07,2.41.62.54.87.22,2.16-.34,2.69-.77.73-2.39.24-2.84-.37-.67-.91-.26-2.42.78-2.93Z"/>
  <path class="cls-1" d="M547.11,657.82c.31,1.52-.31,2.93-1.17,3.35-.78.38-2.26-.53-2.46-1.86-.18-1.21,3.38-2.68,3.62-1.49Z"/>
  <path class="cls-1" d="M466.93,435.59c1.2-.6,1.98.15,2.24.71.42.9.32,2.13-.52,2.46s-2,.33-2.29-.41c-.32-.81-.49-2.22.57-2.76Z"/>
  <path class="cls-1" d="M365.53,540.44c-2.19.18-1.71-2.16-1.68-3.78,1.42.71,1.82,2.14,1.68,3.78Z"/>
  <path class="cls-1" d="M361.69,534.45c-1.74.32-2.93-1.04-3.78-2.41,1.7.36,2.8,1.06,3.78,2.41Z"/>
  <path class="cls-1" d="M542.34,622.92c-1.27,3.87-4.09,7.17-7.56,9.2.8-4.62,5.01-6.65,6.66-9.85.27.25.58.47.91.65Z"/>
  <path class="cls-1" d="M542.18,633.5c-2.29,1.6-3.53,5.62-7.68,5.08,1.35-2.56,3.47-4.42,5.48-5.92.57.6,1.4.75,2.19.84Z"/>
  <path class="cls-1" d="M533.8,612.15l.92.2c-.94,1.91-.17,4.42-2.89,4.57-.04-1.95.5-3.91,1.97-4.77Z"/>
  <path class="cls-1" d="M481.44,465.5v1.44c-1.79-.15-3.89,0-5.34-1.67,2.13-.94,3.73.14,5.34.23Z"/>
  <path class="cls-1" d="M489.74,481.8l-.18,1.12c-1.63-.78-3.22-1.11-3.58-2.96,1.97-.5,3.24.59,3.76,1.85Z"/>
  <path class="cls-1" d="M478.58,470.57c-.49.27-.96.58-1.38.96-1.47-.46-2.61-.58-3.37-1.6,1.81-2.06,3.36.29,4.76.65Z"/>
  <path class="cls-1" d="M483.78,466.25c-.22.28-.47.53-.75.75l-1.59-.06v-1.44c1.28.07,1.91.17,2.34.75Z"/>
  <path class="cls-1" d="M484.56,467.77c-.79-.32-1.25-.56-1.53-.77.28-.22.53-.47.75-.75l.87.05-.09,1.47Z"/>
</svg>