<?xml version="1.0" encoding="UTF-8"?>
<svg id="Layer_1" data-name="Layer 1" xmlns="http://www.w3.org/2000/svg" viewBox="0 0 1080 1080">
  <defs>
    <style>
      .cls-1 {
        fill: #674773;
      }

      .cls-2 {
        fill: #502163;
      }

      .cls-3 {
        fill: #502063;
      }

      .cls-4 {
        fill: #4f2062;
      }

      .cls-5 {
        fill: #542666;
      }

      .cls-6 {
        fill: #4e225f;
      }

      .cls-7 {
        fill: #4f1f62;
      }

      .cls-8 {
        fill: #5b316c;
      }

      .cls-9 {
        fill: #512463;
      }
    </style>
  </defs>
  <path class="cls-8" d="M436.94,537.34l-34.74.98c-2.31.07-4.39.45-6.83.48l-37.59.45c-2.07,3.13-1.99,6.44-2.54,9.87-.38,2.38-1.84,4.45-1.89,7.13,6.41,2.24,21.66,4.76,28.51,5.43,3.17.31,6.39,1.22,9.57,1.64l11.87,1.57c-.5-.07,30.81,3.89,25.04,6.84-6.52.27-11.51-.67-18.46-1.76l-20.81-3.25-27.25-4.2c-3.09-.48-5.86-1.69-9.47-1.43l-8.17,16.11,52.95,20.84,51.75,20.08c3.95,1.53,10.18,3.31,11.04,5.83s-12.06-2.04-13.25-2.49l-39.56-15.1-51.18-20.6c-4.62-1.86-8.79-3.65-14.12-4.93l-10.67,13.66c12.93,9.22,25.69,17.17,38.99,25.25l20.01,12.15c3.91,2.37,8.03,3.88,11.68,6.9-2.14.15-5.24,1-7.5-.17-4.96-2.58-9.41-5.26-14.22-8.24l-52.44-32.56-16.83,15.17,21.53,21.19,25.51,24.76c-1.79.51-4.04.88-5.26-.29l-14.44-13.92-14.24-13.47c-5.48-5.18-10.49-10.55-16.8-14.8-6.15,2.92-11.61,6.08-17.13,9.82l17.93,28.36,16.56,26.11c1.16,1.84-.07,4.15.16,7.06l-38.82-60.83c-3.34,1.73-5.8,3.78-9.11,2.73.24-2.79,1.38-5.18,2.81-7.68,11.61-20.4,19.58-42.41,22.52-65.8,3.81-30.32-7.22-61.93-28.07-84.04-16.01-16.97-36.26-29.2-57.6-38.25-2.18-.92-9.57-3.6-9.67-5.5-.11-2.16,5.26-2.42,7.84-4.17l-6.98-63.58c-.61-5.58-1.5-10.92-.53-16.05,1.27-.97,2.75,1.1,2.92,2.74l5.78,54.16c.74,6.95.72,13.73,2.66,20.35,4.45.99,8.17-.25,12.4-1.01,2.11-.38,6.3-.05,7.08-2.76,2.58-8.92,3.41-17.87,4.61-27.01l5.48-41.69,5.13-36.81c.78-5.63,1.4-10.84,3.1-16.4.57.33,1.31,1.11,1.46,1.68l-1.22,14.12-1.79,15.23-6.08,49.35-5.29,43.09c7.3.76,13.96.83,21.04.5,1.1-.05,2.08-1.71,2.4-2.6l13.73-37.94c5-13.81,9.68-27.19,15.42-40.6.47-1.11,1.64-1.41,2.43-1.24.62.13,1.34,1.5.88,2.66-10.31,26.43-20.35,52.5-28.89,80.38l17.4,4.03,39.9-69.17c7.06-12.24,13.78-23.79,21.38-35.57.58-.91,1.92-2.63,3.14-2.64,1.45,0,.86,2.82.18,3.98l-32.59,55.72-27.95,49.17,13.56,6.57c2.04.99,3.94.6,5.39-1.23,6.42-8.1,13.33-15.43,20.36-23l10.16-10.94c6.3-6.79,12.72-13.12,19.47-19.76,1.53,2.17.33,4.06-1.01,5.52l-32.95,35.83c-5.21,5.66-10.06,10.91-14.79,17.27,4.28,4.17,8.63,7.84,13.64,11.4l27.81-21.5,32.67-24.28c13.16-9.78,26.5-18.39,39.01-29.07,1.01-.86,3.41-2.21,4.24-1.52,1.11,1.29-.62,3.5-1.98,4.51l-47.9,35.89-42.63,32.23c-2.86,2.16-5.46,4.16-8.1,6.8,5.48,6.88,10.19,13.06,14.77,20.3l41.67-22.7c1.67-.91,19.58-11.44,18.3-6.75-.15.55-.4,1.44-1.24,1.9l-50.17,27.52c-2.53,1.39-4.74,2.74-6.09,4.99l6.2,10.55,96.59-33.75,41.09-14.47c.85-.3,1.49-.43,1.89-.2.72.41.99,1.14.68,1.82-.21.46-.77.9-1.66,1.27-26.57,11.05-53.21,20.33-80.55,29.52l-57.38,19.28c1.02,5.26,1.24,9.64,3.05,13.9.98,2.3,13.56-.55,17.08-1.17l44.06-7.71c1.91-.33,3.9-.6,5.5,1.15-2.79,1.84-5.97,2.38-9.39,3.01l-54.98,10.11c-1.05.47-1.37,2.79-1.25,3.71.9,7.12.69,13.77.86,21.01l26.41.15c11.13.06,21.87.16,32.95-.56l12.01-.77,22.47-.71c5.63-.18,10.92-1.06,16.48-.99l14.86.2c1.02.01,3.62,1.61,2.77,2.53-2.07,2.23-5.77,1.22-8.61,1.34l-27.07,1.17c-4.32.19-8.24.42-13.08.56ZM347.76,560.74c5.28-13.67,7.1-28.08,5.9-42.77-.75-9.17-1.69-18.26-4.9-26.85-4.53-12.12-11.31-23.01-19.47-32.92-11.2-13.62-25.47-23.02-42.06-28.59-8.76-2.94-17.2-4.71-26.42-4.96-8.73-.25-17.67-2.19-26.59.61,31.16,4.26,59.93,15.51,83.24,35.59,8.41,7.24,15.01,15.48,19.36,25.49,3.33,7.67,6.11,15.34,7.09,23.64,1.46,12.36-.06,24.33-3.5,36.35-6.83,23.85-19.53,44.91-36.2,63.14-1.53,1.67-3.54,3.2-3.55,5.57,19.58-14.28,38.56-32.24,47.09-54.3ZM300.64,607.51c15.66-16.25,26.84-35.19,34.18-55.76,3.43-9.62,4.93-19.25,5.46-29.3,1.13-21.48-7.08-41.11-22.32-55.85-6.22-6.01-12.39-11.12-19.97-15.58-18.07-10.64-37.88-18.92-59.8-20.77,22.64,7.33,47.39,17.89,64.94,36.74,8.16,8.76,15.66,17.64,20.68,28.61,8.3,18.14,5.01,47.41-.53,66.39-2.68,9.2-6.97,17.24-10.93,25.83-3.26,7.06-8.46,12.5-11.7,19.69ZM323.99,542.33c1.55-9.39,1.56-18.62.76-27.97-.55-6.44-3.81-12.16-5.61-18.13s-4.89-10.63-8.74-15.4c-9.66-11.95-20.57-22.22-34.15-29.75s-26.27-13.59-40.96-16.79c5.64,4.67,11.96,5.48,17.7,9.07,23.13,11.54,42.3,29.01,55.02,51.6,5.59,9.93,7.31,20.66,7.99,32.04,1.31,22.07-3.85,43.3-13.37,63.14-2.53,6.17-6.6,10.94-8.22,17.92,15.27-19.21,25.6-41.5,29.59-65.72ZM297.92,591.66c16.19-31.07,21.28-69.63,3.75-99.9-11.86-20.48-31.3-35.32-52.07-45.84.13,3.14,4.1,2.15,4.87,4.77,8.95,6.54,17.08,13.52,24.47,21.87,21.54,24.37,30.21,56.64,25.77,88.78-1.48,10.68-5.06,20.12-6.79,30.32Z"/>
  <path class="cls-3" d="M158.84,735.02l28.66-78.92c.76-2.1,1.57-4.01-.5-5.63l-22.64-17.72,5.56-8.89c8.06,4.46,15.68,8.72,24.91,11.47l30.67-84.25c1.01-2.78,3.06-4.37,5.46-4.4,2.14-.03,5.14.87,6.21,3.55l32.36,81.19,5.92,15.22,33.11,82.23c1.18,2.93.03,6.49-1.85,7.83-2.43,1.73-5.72,2.01-8.34-.02l-100.21-77.51-28.01,76.01c-3.72.98-6.91,1.14-11.31-.17ZM259.9,636.26l-28.16-69.53-25.27,68.73c-.47,1.28-.27,2.55.43,3.34,14.72,2.99,38.11,3.13,53-2.54ZM291.55,717.44l-27.4-70.74c-19.52,6.49-37.94,6.16-58.91,3.8l86.3,66.94Z"/>
  <path class="cls-3" d="M927.59,669.46c-7.51-2.83-16.56.55-20.39,6.83,1.82,1.58,4.07,1.58,6.08,1.83,7.3.9,13.02,5.09,15.86,11.81,5.92,14.07,2.17,29.88-9.56,39.66-5.47,4.57-12.08,6.12-19.12,4.74-7.78-1.52-13.62-7.46-15.17-15.41-3.56-18.33,12.51-32.78,29.57-35.07-5.18-2.76-15.66,1.33-16.94-1.5s.18-5.64,1.88-7.94c10.11-13.74,33.9-14.74,43.66-2.47,3.55,4.47,5.32,10.26,5.36,16.08l.27,34.37c.06,7.53,3.68,7.33,2.89,9.94-.29.96-1.3,1.85-2.79,1.86l-10.52.07c-1.64.01-3.1-1.17-3.11-2.94l-.14-40.81c-.02-5.87-.9-18.44-7.83-21.05ZM921.52,719.69c7.24-8.82,7.37-21.55,1.33-31.01-4.17-.7-7.94.38-11.68,1.7-9.13,3.21-14.02,11.94-12.92,21.56.61,5.37,2.82,10.69,8.17,12.81,5.28,2.1,11.21-.32,15.1-5.05Z"/>
  <path class="cls-7" d="M641.07,688.69c-.84,5.66-1.37,35.34.36,38.24l2.06,2.88c.73,1.03.99,2.08.44,3.05-.44.77-1.43,1.35-2.73,1.35l-14.23-.03c-1.42,0-2.16-.92-2.49-2.02-.61-2.01,3.01-2.91,3.01-9.21l-.03-34.83c0-5.08-1.91-16.21-7.73-17.47-2.61-.56-4.87.13-6.87,1.65-13.35,10.11-15.03,36.79-14.38,52.25.11,2.57,1.48,4.38,2.69,6.39.95,1.58-1.01,3.3-2.66,3.27-7.36-.15-16.21,1.42-16.97-2.52-.36-1.85,3.19-1.55,3.18-10.55l-.02-44.58c0-8.83-4.42-8.51-2.87-11.03.41-.67,1.21-1.51,2.41-1.51l11.25-.03c5.37-.01,1.44,13.33,3.21,18.86,5.5-12.2,13.89-22.52,28.25-18.76,10.52,2.75,14.03,15.16,14.12,24.58Z"/>
  <path class="cls-2" d="M708.72,690.5c6.42,4.3,9.81,11.65,9.65,19.51-.15,7.37-3.91,14.47-10.83,18.92-14.38,9.26-33.97,7.39-46.27-4.96-9.51-9.55-12.36-23.63-7.93-36.66,3.86-11.37,14.1-20.55,27.01-23.11,16.73-3.32,33.37,5.1,40.23,20.64.62,1.41.83,2.28.03,3.5-1.94,2.97-6.21.69-11.89,2.16ZM705.41,685.3c-2.83-5.75-6.53-9.67-11.21-12.9-8.49-5.87-19.96-3.86-25.33,5.08-3.33,5.55-4.84,11.93-4.17,18.27,16.52,3.04,22.41-9.06,40.7-10.45ZM674.19,720.43c8.61,8.54,20.89,9.91,30.86,3.66,5.07-3.17,8.43-8.56,8.48-14.07.06-5.96-2.33-11.71-7.39-15.09-15.57-7.79-20.41,8.98-41.13,6.15,1.31,7.67,3.95,14.16,9.18,19.34Z"/>
  <path class="cls-4" d="M374.86,724.91c-4.67,6.04-11.61,9.04-19.04,10.36-12.51,2.22-24.93-1.26-35.5-8.54,1-5.61,2.21-10.65,3.48-16.06.3-1.27,1.82-1.95,2.67-1.92,1.83.06,2.16.34,2.44,2.04,1.25,7.52,7.92,14.05,13.76,16.44,12.08,4.95,27.92.62,27.6-8.18-.08-2.34-1.78-4.3-4.07-5.84-8.68-5.84-21.36-4.55-32.44-14.47-8.41-7.53-9.04-19.22-1.47-27.47,3.69-4.02,7.88-6.72,13.68-7.2,9.38-.78,19.02.54,26.78,6,1.56,1.1,4.14,3.04,3.77,5.12-1.02,5.83-2.12,11.43-3.91,17.02-.36,1.11-2.65.12-3.18-.41-1.25-1.26-.83-11.31-15.06-19.76-4.49-2.67-10.07-3.46-14.55-.75-2.36,1.43-3.96,3.71-4.25,6.02-.34,2.68,1.04,5.34,3.32,7.22,10.78,8.87,21.94,6.12,33.4,15.24,7.86,6.26,8.97,16.85,2.55,25.15Z"/>
  <path class="cls-4" d="M534.27,733.76c-19.31-2.39-32.6-18.59-31.65-37.16s16-33.47,35.13-33.82c21.23-.39,37.81,16.67,36.77,37.5-1,20.17-19.05,36.1-40.25,33.48ZM559.18,716.19c6.03-15.95.19-34.55-13.37-44.41-5.21-3.79-11.33-4.43-17.52-2.23-4.39,1.56-8.35,6.01-10.37,11.54-5.68,15.5-.33,33.6,12.89,43.59,5.17,3.91,11.03,4.99,17.45,2.8,4.25-1.45,8.68-5.35,10.93-11.29Z"/>
  <path class="cls-4" d="M790.64,734.16l-17.59.14c-1.59.01-2.75-.56-3.44-1.39-.89-1.07.31-2.79.83-4.21l-18.81-24.62-20.56,24.42c.74,1.26,2.23,2.16,2.04,3.29-.21,1.25-1.14,2.36-2.73,2.4-4.85.13-11.17,1.02-12.49-1.93-1.56-3.5,4.93-1.9,12.01-10.35l18.42-21.97-19.49-25.35c-3.9-5.08-9.22-5.58-8.47-8.57.22-.86,1.16-2.01,2.51-2l19.36.11c1.28,0,1.45,1.49,1.92,1.9.74.65-1.71,2.68-1.29,3.33,4.44,6.95,9.88,13.16,14.76,19.46l15.76-19.23c-.74-1.2-1.86-2.18-1.85-3,.04-3.75,7.06-2.64,12.78-2.57,1.43.02,2.43.92,2.63,2,.77,4.03-5.41,2.12-11.45,9.41l-14.65,17.68,22.26,28.82c6.22,8.06,10.06,6.86,9.88,9.82-.05.79-.74,2.41-2.37,2.43Z"/>
  <path class="cls-2" d="M419.88,725.85c10.25-7.6,9.33-19.71,12.61-19.79,7.96-.21-2.31,17.16-6.62,22.03-7.41,8.38-20.55,9.47-28.17,1.01-4.71-5.23-6.21-12.36-6.25-19.3l-.22-34.61c-.05-7.31-8.07-5.07-8.51-8.63-.49-3.98,10.41-1.97,12.07-11l1.82-9.86c4.03-.91,8.34-1.16,12.44.14,1.25,6.68-.88,13.16-5.56,17.96,4.72,1.06,13.29-1.84,13.34,2.75.04,4.22-8.1,1.48-11.86,2.64l.08,40.46c.01,5.53,1.74,16.16,7.59,17.84,2.52.73,5.06-.03,7.25-1.66Z"/>
  <path class="cls-4" d="M836.77,726.14c10.84-7.71,9.97-20.08,13.03-20.11.94,0,3.38.95,3.09,2.5-2.59,14.05-13.65,30.49-30.74,25.28-10.17-3.1-13.33-15.38-13.37-25.1l-.17-33.54c-.04-7.43-8.05-4.83-8.5-8.62s10.37-1.96,12.06-10.99l1.85-9.88c3.98-.95,8.33-1.09,12.45.19,1.24,6.59-.92,12.99-5.41,17.79,3.73,1.27,13.31-1.63,13.22,2.87-.08,4.04-8.76,1.53-11.89,2.7l.05,40.38c0,5.42,1.77,15.8,7.03,17.69,2.49.89,5.07.41,7.31-1.18Z"/>
  <path class="cls-7" d="M457.59,723.12c-.05,6.67,3.86,6.85,2.89,9.2-.37.91-1.39,1.93-2.89,1.93h-14.24c-1.42,0-2.26-1.08-2.62-1.95-.95-2.3,3.12-2.33,3.12-9.5v-47.84c0-3.11-1.27-5.39-3.01-7.67-3.53-4.63,12.98-3.38,14.97-2.94s1.56,3.2,2.16,5.07c4.78-4.8,11.02-6.07,17.61-6.11,9.37-.06,17.04,5.44,18.86,14.84.32,1.66.96,3.03,2.35,4.28s.81,4-1.02,4.76c-4.46,1.87-8.83,3.62-13.42,5.19-1.61.55-3.03-1.04-3.49-1.93-.84-1.63,1-2.09,1.66-3.71,1.68-4.14.8-10.49-2.62-13.98-3.33-3.41-9.58-2.78-13.66-.57-3.65,1.97-6.35,6.8-6.39,11.79l-.28,39.15Z"/>
  <path class="cls-3" d="M962.29,734.19c-1.78,0-2.67-.99-3.01-1.88-.88-2.34,3.12-2.13,3.13-10.25l.07-43.54c0-2.45-1.24-3.96-2.78-5.64-1.14-1.24-.03-3.68,1.44-4.24l10.41-3.98c1.13-.43,2.08-.43,2.91-.04,1.12.52,1.52,1.51,1.52,3.09l.07,54.65c.01,7.87,3.79,7.34,2.91,9.95-.31.92-1.33,1.93-2.8,1.92l-13.88-.05Z"/>
  <path class="cls-5" d="M181.54,448.61c-.89-9.96-7.62-16.89-18.17-17.71,10.19-1.61,17.13-7.79,17.65-18.51,1.65,10.16,7.34,16.35,17.97,18.16-9.66.69-15.88,7.72-17.45,18.06Z"/>
  <path class="cls-5" d="M147.17,476.92c-1.23-8.46-6.62-14.6-15.79-16.76,8.77-2.34,13.96-7.85,15.23-17.18,1.99,9.82,7.64,15.65,17.7,16.62-9.66,1.49-15.96,7.48-17.14,17.31Z"/>
  <path class="cls-5" d="M122.91,513.83c-4.23-11-3.82-9.39-15.02-15.55,8.51-2.03,13.69-7.82,14.33-16.61,1.88,9.24,7.85,15.96,17.83,16.34-8.56,1.33-14.98,5.92-17.15,15.82Z"/>
  <path class="cls-5" d="M116.75,558.87c-2.54-8.19-7.39-12.63-15.85-14,8.57-1.68,13.41-6.53,15.43-14.97,2.35,7.96,6.61,12.07,14.64,14.45-7.49,2.71-11.83,6.39-14.22,14.51Z"/>
  <path class="cls-9" d="M449.34,787.04c2.78-.54,5.23-.33,7.93.03-.64,4.52,2.36,14.77-3.7,10.23-2.12.51-4.57,2.29-7.36,1.33-7.59-2.62-8.23-13.07-4.4-18.64,1.99-2.89,5.2-3.85,8.55-3.39,2.82.39,6.21,2.77,6.4,6.63.03.94-2.95,1.13-3.6.52-1.4-1.49-2.05-3.37-4.22-3.17s-3.84,1.46-4.34,3.98c-.58,2.92-.25,5.67,1.01,8.34.82,1.75,2.48,1.98,4.14,1.85,1.22-.1,3.71-2.84,2.38-3.27l-3.14-1c-.69-.22-.87-3.2.35-3.43Z"/>
  <path class="cls-6" d="M501.64,797.79c-.03,1.07-3.35.96-3.61.13l-.18-20.35c.97-1.03,4.23-1.26,5-.06l7.56,11.75.65-12.08c.5-.64,2.54-.45,3.45.21l-.12,20.52c-.6,1.01-3.77,1.05-4.37.1l-8.04-12.79-.35,12.58Z"/>
  <path class="cls-6" d="M329.24,797.76c-.08,1.26-3.75,1.17-4.4.29l-7.9-12.8-.45,12.69c-.03.9-3.39,1.14-3.47.05-.51-6.93-.27-13.98-.12-20.76,1.21-.69,4.14-.95,4.83.14l7.38,11.64c.92-3.89-.14-7.48.54-11.33.19-1.09,3.02-1.17,3.71-.31.03,6.21.33,13.28-.13,20.38Z"/>
  <path class="cls-6" d="M777.94,790.45c-.76-1.05-3.79-1.04-4.26-.13-1.16,2.24.31,5.22-.78,7.64-.43.95-3.62.94-4.15-.05l-.16-20.84c6.64,0,16.12-2.12,17.21,4.94.45,2.93-.53,5.29-3.13,7.12l2.94,8.97c-1.13.47-3.43.98-4.36-.05-1.79-1.98-1.5-5.06-3.32-7.59ZM781.09,783.43c.14-3.47-5.01-2.73-7.66-2.39-.27,1.72-.27,3.07,0,4.78,2.73.4,7.52,1.01,7.66-2.39Z"/>
  <path class="cls-9" d="M893.07,787.11c2.7-.74,5.21-.29,8.02-.1-.14,1.92,1.71,17.34-3.2,9.48-2.08,1.86-4.36,2.74-7.38,2.17-6.55-1.26-8.19-9.89-6.16-16.06,1.31-3.99,4.41-5.97,8.28-6.14,3.63-.16,7.73,2.44,8.03,6.56.03,1.01-3.18,1.55-3.72.71-1.07-1.67-1.81-3.11-3.6-3.15-1.91-.04-3.89.67-4.46,2.98-.67,2.7-.76,5.91.2,8.51.7,1.89,2.52,2.76,4.23,2.73,1.36-.03,4.11-2.01,2.85-3.51-.68-.81-3.11,0-3.38-.77-.29-.8-.7-3.13.3-3.4Z"/>
  <path class="cls-5" d="M144.31,585.63c-7.63,2.49-11.8,7.12-13.11,15-1.29-8.28-6.45-13.35-15.52-14.61,8.48-1.16,14.12-6.55,14.97-15.39,1.69,8.05,5.18,12.34,13.66,15Z"/>
  <path class="cls-5" d="M253.61,797.8c-.01,1.28-3.65,1.02-4.09.08-.99-2.13.56-5.85-.65-7.84-.9-1.16-5.09-1.19-6.11,0-1.79,2.08-.13,5.19-.91,7.72-.32,1.04-3.93,1.2-4.03.09-.6-6.76-.12-13.78-.3-20.39,1.27-.95,3.11-.74,4.36-.41.69,2.29-.79,5.26.72,7.51,1.1,1.64,4.66.46,6.57.71l.2-8.11c1.44-.46,2.71-.73,4.44-.82l-.2,21.47Z"/>
  <path class="cls-9" d="M725.22,798.42c-4.55,1.13-10.55-.09-11.74-4.94-.27-1.11,1.68-1.27,2.37-1.42,2.48-.53,2.32,3.44,7.23,2.88,1.03-.12,3.05-1.09,2.67-3-.6-2.96-13.63-1.77-11.54-10.13.84-3.34,4.2-5.16,6.89-5.29,3.08-.15,7.96.6,8.4,4.37.21,1.8-3.95,2.12-4.88.58-.81-1.34-2.54-1.15-3.56-.96-.82.15-2.52,1.05-1.77,2.51,1.57,3.08,10.85,1.01,11.49,7.99.32,3.48-1.35,6.36-5.56,7.41Z"/>
  <path class="cls-9" d="M279.95,788.62c.03,1.51-5.15-.17-6.89,1.22-.85.68-.61,2.31-.53,4.15,2.76.88,5.73-.21,8.95.48,1.03.22,1.02,2.63.47,3.75-4.35.53-9.41.47-14.28.16-.66-7.2-.31-13.88-.07-21.3,4.6-.43,8.9-.41,13.59-.08,1.03.07,1.1,3.24.18,3.54-2.6.86-5.46-.25-8.2.49-.98.26-1.13,3.46-.33,4.08l6.85.92c.73.1.24,1.94.25,2.59Z"/>
  <path class="cls-9" d="M482.43,785.79c1.01.25.7,1.98.56,2.82-.33,1.98-6.32-.52-7.24,1.52-.43.95-.57,3.88.53,3.94l8.33.41c.97.05,1.15,3.52.2,3.72-4.34.88-8.92.15-13.77.37l-.14-21.6,13.82-.08c.3.99.75,3.33-.19,3.65-2.91,1-5.93-.46-8.59.65-.75.76-.4,2.89-.13,4.07,2.14.77,4.15-.06,6.62.54Z"/>
  <path class="cls-5" d="M355.27,788.95c-2.03,1.27-4.42-.4-6.45.66-1.25.65-.59,3.24-.5,4.6,2.89.42,5.93-.39,8.75.36.95.25.87,3.57-.09,3.71-4.38.66-8.76.03-13.57.35l-.08-21.71c4.77-.03,8.94-.36,13.47.11.91.09.97,3.07.13,3.37-2.79.99-5.69.1-8.61.46-.28,1.51-.28,2.9.03,4.5l6.85.52c.68.05.86,2.59.06,3.08Z"/>
  <path class="cls-4" d="M965.11,640.4c4.59-1.62,9.44.35,11.11,4.85,1.57,4.25-.2,9.1-5.03,11.08-3.85,1.58-9.03-.42-10.82-4.56-1.9-4.4,0-9.7,4.74-11.38Z"/>
  <path class="cls-9" d="M869.83,794.75c-1.95,3.29-5.31,4.24-8.63,3.99-2.97-.22-5.84-2.46-7.14-5.88-2.25-5.92-.43-14.86,6.59-16.18,3.75-.7,7.31.55,9.27,3.95,2.4,4.16,2.54,9.7-.08,14.12ZM866.11,792.56c1.42-4.11,1.03-12.86-4.13-12.2-4.52.58-4.68,8.45-3.09,12.11.72,1.66,2.15,2.57,3.68,2.49,1.29-.07,2.42-.89,3.53-2.4Z"/>
  <path class="cls-9" d="M815.49,792.2c-1.28,4.24-4.73,6.55-8.34,6.64-3.9.09-7.2-2.09-8.6-6.07-1.15-3.28-1.16-7.21.1-10.5,1.44-3.73,4.93-5.8,8.52-5.79,3.88,0,7.24,2.63,8.37,6.7.78,2.84.88,5.9-.05,9.02ZM810.56,782.99c-.64-1.77-2.46-2.8-4.01-2.62-4.64.54-4.51,8-3.44,11.64.58,1.95,2.29,3,4.01,2.87,4.78-.36,4.83-8.07,3.44-11.9Z"/>
  <path class="cls-6" d="M628.78,792.06c-1.21,4.3-4.58,6.57-8.22,6.78-3.93.22-7.68-2.21-8.9-6.36-.99-3.37-1.01-7.17.26-10.41,1.46-3.72,5.09-5.67,8.62-5.58,3.93.09,7.16,2.74,8.25,6.87.71,2.67.82,5.72-.02,8.7ZM623.82,783.22c-.56-1.68-1.89-2.77-3.36-2.88-1.32-.1-3.06.64-3.75,2.18-2.12,4.75-1,13,3.81,12.36s4.56-7.88,3.3-11.66Z"/>
  <path class="cls-5" d="M154.37,631.83c-2-6.85-6.53-11.56-14.22-12.53,7.73-1.77,12.06-5.89,14.09-13.76.96,6.56,5.06,10.53,11.9,13.43-6.63,2.67-9.71,5.91-11.77,12.86Z"/>
  <path class="cls-2" d="M870.84,734.04c-5.02,1.03-9.1-1.96-9.93-6.06-.88-4.33,1.68-8.49,6.27-9.5s8.43,1.54,9.56,5.39c1.25,4.29-.85,9.12-5.9,10.16Z"/>
  <path class="cls-9" d="M697.69,795.14c-.92-3-7.84-1.25-7.81-1.27-1.18.72-.73,4.4-2.71,4.69-.72.11-3.1.07-2.7-1.16l6.67-20.43c1.83-.27,3.24-.27,5.12.02l7.15,20.86c-.99,1.11-2.8.79-3.94.58-.98-.18-1.27-1.63-1.78-3.29ZM695.59,789.35c-.68-2.4-.98-4.14-2.08-6.05-1.55,1.98-1.89,4.2-2.4,6.36,1.93.23,3.1.42,4.48-.31Z"/>
  <path class="cls-9" d="M557.97,795.87c-.57-3.94-8.02-2.05-7.7-2.17-1.46.54-1.11,3.66-2.66,4.68-.57.37-3.25.3-3.02-.45l6.44-20.97c2.03-.27,3.58-.34,5.55.13l6.63,20.29c.48,1.45-2.27,1.3-3.2,1.17-1.1-.15-1.81-1.14-2.04-2.69ZM555.33,789.13c-.08-2.57-1.01-4.09-1.81-5.97-1.41,2.1-1.96,4.14-2.2,6.42,1.21.34,4.04.57,4.01-.45Z"/>
  <path class="cls-9" d="M386.02,797.9c-1.02.61-3.39,1.26-4.53.35-2.23-1.76-2.73-4.92-4.59-7.11-3.2,3.27-3.63,9.89-8.58,6.65l6.02-10.46-5.21-9.89c1.14-.88,4.15-1.24,5.3.16,1.33,1.61,1.46,3.86,3.43,4.81l3.47-5.15c.65-.96,3.58-.77,3.89.35l-5.13,9.11,5.92,11.19Z"/>
  <path class="cls-5" d="M653.58,785.9c.95.16.95,3.18.11,3.56-2.08.93-4.29-.09-6.49.55l-.63,7.91c-.09,1.11-2.98.7-4.21.25l-.04-21.33c4.61.1,9.06-.3,13.31.16.89.1.91,3.53.05,3.58l-8.29.54c-.83.48-.81,3.38-.04,4.04,1.59,1.36,3.74.33,6.25.74Z"/>
  <path class="cls-9" d="M929.23,777.45c-1.11,4.46-5.75,7.66-6.02,11.86l-.55,8.56c-.44.95-3.55,1.05-4.16.2-1.69-2.37-.04-6.18-.91-8.88-1.38-4.25-4.6-7.29-6.33-11.8.76-.58,3.47-1.16,4.73-.33,2.36,1.56,2.58,5.23,4.96,7.35,1.73-2.12,2.56-4.62,4-6.92.75-1.2,4.02-1.23,4.28-.05Z"/>
  <path class="cls-2" d="M751.27,797.84c-.04,1.05-3.91,1.04-4.22.04l-.35-16.71-5.07-.64c-.84-.11-.72-2.84.07-3.54,4.48-.3,9.77-.36,14.58,0,1.12.09,1.13,3.18.26,3.55-1.45.61-2.97,0-4.68.44l-.6,16.85Z"/>
  <path class="cls-6" d="M220.77,794.7c0,1.55-.31,2.96-.99,3.43-.85.6-2.87.71-4.03,0l-.25-17.23c-1.74-.39-3.33.29-5.14-.34-.85-.3-.8-2.97,0-3.53,4.55-.39,9.88-.35,14.71-.02.95.07,1.07,3.21.19,3.55-1.39.53-2.98-.03-4.46.34l-.03,13.78Z"/>
  <path class="cls-2" d="M841.89,794.37c1.23.03,1.32,3.62.37,3.81-4.06.81-8.38.23-13,.23l-.22-21.11c.9-.82,3.37-.79,4.52,0l.25,16.89,8.08.17Z"/>
  <path class="cls-6" d="M405.78,797.78c-.04,1.26-3.12.79-4.19.54l-.23-17.43-4.65-.15c-1.2-.04-1.2-3.63.11-3.73,4.94-.37,9.37-.17,14.36-.04,1.09.03,1.04,3.49.19,3.59l-5.12.59-.47,16.62Z"/>
  <path class="cls-6" d="M579.69,798.29c-1.35.36-3.86.61-4.26-.32-.31-6.84-.34-13.3.01-20.32.06-1.28,4.05-1.3,4.3-.16,1.49,6.92.5,14-.05,20.8ZM578.93,796.09l.1-16.94c0-1.1-2.81-1.01-2.89.15-.22,3.47-.54,14.79.51,16.88.2.41,2.27.82,2.28-.09Z"/>
  <path class="cls-8" d="M502.21,536.36c-1.12,1.32-3.05.94-4.06.63s-1.66-2.02-1.33-3.43c.22-.96,1.45-2.08,3.2-2.23,1.92-.16,3.59,3.4,2.19,5.04Z"/>
  <path class="cls-1" d="M442.27,361.65c.34,1.69.12,3.26-.55,3.63-.95.52-2.3.75-3.54.28-1.72-.65-1.74-3.19-.64-4.34s4.24-1.98,4.73.43Z"/>
  <path class="cls-8" d="M365.42,305.19c-.76,1.05-3.64.81-4.67.14-1.51-.98-.88-2.96-.14-3.78,1.14-1.28,2.56-1.34,3.66-.66,1.26.77,2.44,2.52,1.15,4.3Z"/>
  <path class="cls-1" d="M203.26,332.64c-.62-1.37.03-2.87,1.13-3.57.77-.49,2.32-1.57,3.32-.44,1.19,1.34,1.37,3.81-.1,4.74-1.2.76-3.52,1.08-4.35-.74Z"/>
  <path class="cls-6" d="M428.97,791.77c-2.8.49-5.25.36-8.04.18-.37-1.35-.38-2.21.01-3.59,2.73-.06,5.29-.46,7.81.3.63.19.39,1.86.22,3.11Z"/>
  <path class="cls-1" d="M414.55,438.14c-1.91-.14-3.52-1.34-3.64-2.45-.2-1.86,1.08-2.79,2.18-2.92,2.11-.26,3.1.69,3.19,2.81.05,1.11-.21,2.68-1.74,2.57Z"/>
  <path class="cls-6" d="M641.42,726.92c-1.73-2.89-1.2-32.58-.36-38.24l.36,38.24Z"/>
  <path class="cls-1" d="M432.98,491.59c1.72-.99,3.12-.14,3.61,1.08.53,1.32.55,3.07-.8,3.76-1.21.61-2.82.31-3.49-.66-.76-1.1-.89-3.27.68-4.17Z"/>
  <path class="cls-8" d="M261.44,286.78c-2.66,1.17-3.74-1.46-3.5-3.28.19-1.41,2.76-3.34,4.15-1.89,1.15,1.2.77,4.54-.66,5.17Z"/>
  <path class="cls-8" d="M478.05,631.36c-2.15.55-3.62.28-3.72-1.52-.08-1.35.14-2.79,2.13-3.05,1.33-.17,2.96-.3,3.35.94s.07,3.17-1.75,3.63Z"/>
  <path class="cls-8" d="M511.52,434.11c-.64,1.23-1.88,1.25-3.14,1.05-.83-.13-1.21-1.28-1.49-2.44-.21-.86.64-2.29,2.27-2.8,1.77-.55,3.22,2.53,2.37,4.18Z"/>
  <path class="cls-1" d="M304.34,327.44c-2.03.06-2.43-1.89-2.34-3.07.1-1.33,1.45-2.89,3.11-2.23,1.25.5,1.55,1.79,1.3,2.74-.21.8-.41,2.51-2.07,2.56Z"/>
  <path class="cls-1" d="M373.97,575.38c1.22-.4,2.68-.44,3.08.7s.05,2.68-1.23,3.21c-.84.35-2.32.45-3.05-.79-.51-.86-.08-2.69,1.21-3.12Z"/>
  <path class="cls-1" d="M369.39,372.13c-1.7-.26-1.95-3.99-.43-4.75,1.6-.81,2.54.54,2.82,1.38.48,1.43.02,3.74-2.39,3.37Z"/>
  <path class="cls-1" d="M314.53,405.47c1.53-.32,2.52.61,2.64,1.37.25,1.57-.61,2.59-1.78,2.82-1.06.21-2.1-.18-2.55-1.15-.58-1.25-.23-2.63,1.69-3.04Z"/>
  <path class="cls-1" d="M375.19,524.18c-1.12.14-1.45-1.88-1.34-2.81s.78-2.1,2.2-2.15c1.23-.05,1.5,1.51,1.67,2.23.31,1.32-.44,2.48-2.53,2.73Z"/>
  <path class="cls-1" d="M368.12,436.13c1.24-.68,2.67-.29,2.94.67.35,1.24.28,2.36-.78,3.06-.83.55-2.14.91-2.74-.08-.68-1.12-.65-2.98.57-3.65Z"/>
  <path class="cls-1" d="M352.9,451.4c-.41,1.31-2.26,1.14-2.96.64-.62-.45-1.84-1.83-1.23-2.79.58-.91,2.24-.86,2.93-1.72.7,1.27,1.74,2.33,1.26,3.86Z"/>
  <path class="cls-1" d="M360.68,601.19c-1.37-.1-2.37-1.04-2.18-1.93.22-1.04,1.18-1.73,2.42-1.71s2.21.7,2.46,1.76c.27,1.15-1.07,1.98-2.7,1.87Z"/>
  <path class="cls-1" d="M257.01,397.3c1.15-.56,2.35.61,2.66,1.26.46.96-.1,2.37-.85,2.74-1.14.57-2.34.16-2.71-.63-.47-.99-.54-2.66.9-3.37Z"/>
  <path class="cls-1" d="M442.55,574.62c-1.13.53-2.35-.23-2.83-.93-.43-.63-1.04-2.03-.31-2.83,1.03-1.13,2.6-.63,3.17.07.76.93,1.31,3.07-.02,3.7Z"/>
  <path class="cls-1" d="M323.58,656.3c-.7-1.4.22-2.02,1.02-2.23,1.15-.31,2.64-.33,2.81.41.3,1.31.51,2.77-.22,3.05-1.4.53-2.96.1-3.62-1.22Z"/>
  <path class="cls-1" d="M382.3,492.74c-.76,1.32-2.35.55-2.87-.59-.45-.99-.55-2.32.16-2.9.65-.53,1.91-.61,2.87.01.7.46.72,1.97-.15,3.48Z"/>
  <path class="cls-1" d="M376.32,548.44c1.2-.73,2.28-.06,3.17.74.79.72.34,1.91-.29,2.36-1.02.73-2.42,1.03-3.21.26s-.83-2.65.33-3.36Z"/>
  <path class="cls-1" d="M400,520.69c-.92,1.31-2.64,1.52-3.42.86-.89-.75-1.3-2.4-.13-3.2.85-.58,1.97-.42,2.75-.17.68.22,1.61,1.36.8,2.51Z"/>
  <path class="cls-1" d="M264.68,369.42c1.38-.46,2.2.51,2.28,1.45.1,1.17-.16,2.17-1.23,2.66-1.01.46-1.97-.14-2.35-1.05-.51-1.2-.14-2.58,1.31-3.06Z"/>
  <path class="cls-1" d="M272.03,344.7c1.58-.47,2.45.16,2.5,1.4s-.17,2.13-1.39,2.67c-.79.35-2.14.05-2.5-.82-.51-1.23.09-2.87,1.39-3.25Z"/>
  <path class="cls-1" d="M360.08,637.68c-.78,1.2-2.34.65-3.19,0-.63-.48-1.38-1.99-.5-2.87.74-.74,2.53-.5,3.15.09.52.51,1.19,1.8.55,2.78Z"/>
  <path class="cls-1" d="M299.79,376.48c-1.43-.2-1.34-3.4-.15-4.09,1.44-.83,2.78.25,3.04,1.48.21.97-.82,2.9-2.89,2.61Z"/>
  <path class="cls-1" d="M375.8,472.76c-1.41,1.51-4.12-.68-3.75-2.25.3-1.27,2.13-1.12,3-.75.72.31,1.83,1.83.75,2.99Z"/>
  <path class="cls-1" d="M292.52,398.19c-.01,1.54-.34,2.17-.6,2.52-.43.6-1.36.29-2.17.05-1.47-.44-1.3-2.19-.66-2.99.9-1.12,3.43-1.6,3.42.42Z"/>
  <path class="cls-1" d="M385.71,613.6c-.8.98-2.12.43-2.63,0-.61-.5-1.59-1.76-.87-2.66s2.08-.67,2.78-.45c.96.31,1.68,1.92.71,3.1Z"/>
  <path class="cls-1" d="M226.26,375.42c.95-.52,2.07-.48,2.85.25.61.57.89,2.3-.38,2.68-.74.22-2.09.96-2.81.13-.59-.69-.54-2.57.34-3.05Z"/>
  <path class="cls-1" d="M400.33,582.42c.88-.81,2.23-.4,2.67.12.67.82.66,2.12-.11,3.01-.51.58-1.85.29-2.49-.27-.58-.51-1.25-1.78-.07-2.87Z"/>
  <path class="cls-1" d="M333.27,620.11c-.55-.65-.71-1.54-.48-1.97.38-.71,2.92-1.37,3.7.18.46.9.54,2.23-.17,2.54-1.07.47-2.15.33-3.05-.75Z"/>
  <path class="cls-1" d="M345.35,362.79c1.14-.17,1.68,1.16,1.65,1.96-.04.96-.63,1.96-1.53,2.03-1.08.07-1.93-.73-2.09-1.47-.28-1.29.62-2.32,1.97-2.52Z"/>
  <path class="cls-1" d="M331.79,383.68c1.24-.66,2.01.5,2.29,1.06.54,1.12.16,2.25-.75,2.46-.98.23-2.09.23-2.51-.49-.48-.82-.26-2.37.97-3.04Z"/>
  <path class="cls-1" d="M424.31,590.37c.98-.56,2.05-.05,2.17.68.14.87.44,2.04-.41,2.66-.56.41-1.75-.14-2.21-.56-.77-.69-.63-2.16.45-2.78Z"/>
  <path class="cls-1" d="M334.81,429.1c-.9.87-1.97-1.31-2.04-2.18-.09-1.11.91-2.19,2.17-1.98.73.12,1.07.84,1.12,1.3.07.73,0,1.66-1.25,2.86Z"/>
  <path class="cls-1" d="M228.48,399.32c.74-.42,1.68-.38,2.26.29.45.52.47,1.69-.26,2.31-.65.55-1.75.67-2.38-.22-.42-.59-.57-1.83.39-2.38Z"/>
  <path class="cls-1" d="M311.72,634.56c1-.26,1.43.25,1.64.72.38.84.05,2.14-.77,2.35-1,.26-1.79,0-2.15-1-.29-.79.19-1.78,1.28-2.07Z"/>
  <path class="cls-7" d="M578.93,796.09c0,.91-2.07.5-2.28.09-1.05-2.09-.74-13.41-.51-16.88.07-1.16,2.89-1.26,2.89-.15l-.1,16.94Z"/>
</svg>