<?xml version="1.0" encoding="UTF-8"?>
<svg id="Layer_1" data-name="Layer 1" xmlns="http://www.w3.org/2000/svg" viewBox="0 0 1080 1080">
  <defs>
    <style>
      .cls-1 {
        fill: #4f1f61;
      }

      .cls-2 {
        fill: #40274a;
      }

      .cls-3 {
        fill: #8f7e63;
      }

      .cls-4 {
        fill: #8a775b;
      }

      .cls-5 {
        fill: #4f2062;
      }

      .cls-6 {
        fill: #988d7a;
      }

      .cls-7 {
        fill: #4f1f62;
      }

      .cls-8 {
        fill: #897558;
      }
    </style>
  </defs>
  <path class="cls-3" d="M537.05,562.01c3.36-.13,5.96-.01,8.04,2.14-3.3,2.34-6.9,1.66-10.55,1.79l-35.71,1.28-61.65,1.94c-6.75.21-13-.22-19.7.32-3.48.28-1.93,8.16-5.12,14.94-.34.72-.12,1.73.16,2.12,1.69,2.31,33.45,6.43,39.09,7.37,11.11,1.85,21.9,2.8,32.81,5.35,1.37.32,3.1,1.52,2.16,2.87-14.64-1.07-28.99-3.74-43.43-6.04l-31.67-5.04c-3.56,5.26-5.76,10.63-8.4,16.66l53.37,20.98,57.72,22.4c1.86.72,3.98,1.49,4.66,3.65-3.17.41-5.95-.8-9.06-1.87-19.32-6.67-37.71-14.24-56.73-21.8l-42.94-17.06c-2.78-1.11-6.51-3.29-9.42-2.61-1.62.39-10.04,12.22-10.07,12.86-.05,1.12.67,1.74,1.86,2.55,22.52,15.32,45.65,29.26,68.49,42.31-3.11-.66-5.21,1-7.04-.08l-19.72-11.7-47.02-29.17c-3.11.95-4.34,3.19-6.67,5.11-.61.5-11.33,9.27-10.4,10.19l26.39,26.24,20.07,19.58c-2.73.64-5.07-.2-7.26-2.44-5.86-6-11.72-11.68-17.81-17.44l-13.12-12.4c-3.93-3.72-7.41-7.71-12.45-10.52-3,1.36-15.99,8.36-16.43,10.03-.17.64.15,1.57.67,2.39l16.62,26.13c5.59,8.8,11.22,17.08,16.46,26.12,1.07,1.98.11,5.11.52,6.92l-38.69-60.78c-3.28.72-5.31,2.71-8.62,2.75-.68-1.6-.11-3.56.85-5.21,11.89-20.5,20.34-42.44,23.66-66.11,4.87-34.64-8.87-70.07-34.53-93.07-14.17-12.7-32.89-24.33-50.49-31.3-3.6-1.42-7.11-2.9-10.27-5.34,1.92-2.66,4.84-2.92,8.06-4.07l-8.28-77.4c-.09-.8.6-1.7.64-2.16.04-.5,1.18-.71,1.51-.35s1,1.43,1.09,2.22l7.43,70.29c.19,1.76.37,4.1,1.61,5.41,5.89-.31,12.13-1.13,17.9-2.78,1.65-.47,2.08-3.72,2.36-5.22,2.96-15.64,4.48-30.7,6.73-46.53l9.87-69.42c.1-.7.48-1.39.81-1.42.59-.06,1.19.3,1.09,1.2l-4.48,40.69-9.97,80.5c4.19.6,22.11,2.24,23.35-.77,2.35-5.71,4.21-11.17,6.36-17.05l21.84-59.57c.8-2.17,1.87-4.42,4.27-4.42.17,2.25-.45,4.17-1.29,6.25-9.53,23.78-18.26,47.48-26.05,71.92-.54,1.7-1.28,3.67-.53,5.34l16.84,3.63,40.4-70.06c7.22-12.52,14.18-24.34,21.98-36.3.39-.59,2.26-1.43,2.44-.7.31,2.06-1.1,4.28-2.31,6.23-13.35,21.56-25.34,43.28-37.79,65.38l-20.88,37.05c5.25,2.88,10.49,5.21,16.24,7.31,4.58-2.9,7.21-7.52,10.73-11.47l7.03-7.89c2.51-2.82,5.07-5.35,7.68-8.12l12-12.73c4.95-5.25,10.08-10.28,15.53-15.68.85,5-3.33,7.47-5.99,10.36l-11.47,12.47-7.93,8.56-9.65,10.52-14.3,16.53c4.29,4.53,8.83,8.26,14.03,11.8,23.59-18.27,46.57-36.3,71.01-53.23,8.49-5.88,16.16-11.5,23.99-18.07,2.62-2.2,5.34-4.55,8.7-5.5.23,3.35-2.54,5.23-4.89,6.98l-21.01,15.74-75.13,56.7c5.6,6.98,10.39,13.59,15.2,20.81l39.35-21.55c2.99-1.64,18.95-10.64,20.16-8.74.55.87.11,1.6-.98,2.19l-46.29,25.46c-3.68,2.02-7.04,3.85-10.13,6.77l6.3,11.36,138.48-48.38c1.22-.43,1.7.34,1.76.85.05.43-.4,1.27-1.1,1.55l-20.32,8.13-83.68,29.29-34.47,11.69,2.94,14.86c3.08.85,5.58.08,8.51-.43l55.85-9.59c.75-.13,2.02.93,1.9,1.34-.6,2.09-23.67,5.75-27.77,6.49l-33.57,6.03c-2.51.45-3.94,1.44-3.67,4.42.55,6.21.82,12.39.56,18.72-.08,1.89,1.37,2.86,3.11,2.85,7.65-.06,15.1-.16,22.75-.21l16.74-.11,78.1-3.03ZM371.46,636.5c12.59-10.11,23.14-21.61,30.9-35.56,13.09-23.51,13.69-55.91,5.13-80.69-3.41-9.87-9.1-18.54-15.1-26.91-9.36-13.04-21.61-23.22-36.25-29.67-12.27-5.4-24.65-8.78-38.11-8.97-8.24-.12-16.84-2.59-24.91,1.05,30.24,3.98,57.27,14.81,80.35,33.19,12.15,9.68,20.71,21.84,25.62,36.52,2.34,6.99,4.04,13.73,4.18,21.3.66,35.4-19.35,70.92-43.25,95.94-.52.54-.64,1.25-.48,1.62.89,2.07,9.86-6.19,11.9-7.83ZM359.55,637.67c17.06-16,27.09-36.07,34.95-56.39,8.52-29.25,7.44-56.88-13.34-80.41-18.91-21.42-49.93-34.78-77.59-40.03-2.43-.46-4.62-.78-6.72.32,16.84,3.9,40.92,15.54,53.75,26.01,10.18,8.31,18.7,17.71,26.11,28.42,5.95,8.6,9.43,17.56,10.41,28.18,1.7,18.31-.8,36.61-6.88,53.97-5.1,14.55-13.04,26.58-20.69,39.93ZM353.02,639.18c20.31-23.61,36.14-66.46,30.43-96.04-1.67-8.65-4.67-17.94-9.36-25.51-16.43-26.46-49-46.28-79.86-52.92,12.9,7.68,25.55,12.22,37.07,20.89,14.5,10.91,26.69,23.94,35.59,39.9,5.24,9.4,7.03,19.55,7.86,30.31,1.63,21.19-3.13,41.43-11.48,60.82-3.3,7.65-8.39,14.01-10.24,22.55ZM356.95,622.15c16.55-30.8,21.31-70.95,3.6-100.75-12.26-20.63-31.96-35.78-53.19-45.9,4.92,5.93,10.66,9.16,15.94,13.46,30.03,24.45,45.17,61.15,40.63,99.81-1.34,11.44-5.32,21.76-6.97,33.39Z"/>
  <path class="cls-8" d="M256.04,691.42l-26.68,73.1c-3.32,2.4-7.57,2.18-11.14.33l28.38-78.08c.56-1.53,1.89-4.23.39-5.41l-23.32-18.28c1.75-3.18,3.22-5.72,5.48-8.63,7.74,4.68,15.53,8.36,24.69,11.57l30.55-83.94c.96-2.63,2.61-4.44,4.92-4.77s5.59.67,6.73,3.51l32.59,81.84,4.83,12.42,16.03,39.43,17.82,44.95c1.16,2.93.09,6.05-2.15,7.57s-4.96,1.85-7.58-.17l-66.61-51.46-32.19-24.91c-.73-.56-2.14-.73-2.74.93ZM319,666.65l-27.01-67.76c-.31-.77-.94-1.09-1.32-.99-.35.09-1.05.44-1.3,1.15l-24.15,66.92c-.28.78-.46,2.77.12,3,13.75,3.35,39.97,3.29,53.67-2.33ZM349.99,743.98l-26.87-67.2c-19.21,6.53-38.03,6.37-59.32,3.7l84.03,65.99c1.23.07,1.9.17,2.18-.3.29-.5.16-.95-.03-2.2Z"/>
  <path class="cls-7" d="M649.93,757.91c.34-.05.77-.07.99-.24.6-.48,1.13-49.79-.27-51.43-.87-2.64-1.25-4.89-3.1-7.24-1.08-1.37,1.58-3.33,3.02-3.32l9.85.04c6.54.03,1.79,11.85,3.91,19,2.44-4.56,4.49-8.56,7.84-12.45,7.24-8.41,20.35-9.82,28.1-1.43,4.52,4.9,6.24,11.6,6.31,18.23l.36,37.27c.03,2.61,1.22,4.4,2.67,6.42.88,1.23-.7,3.01-2.08,3.02l-14.15.11c-1.68.01-3.79-1.47-2.79-3.21,1.29-2.22,2.7-4.45,2.69-7.21l-.05-36.41c0-5.08-2.02-14.9-7.72-16.85-2.03-.69-4.56.06-6.67,1.55-14.06,9.92-15.57,38.31-14.66,54.01.15,2.65,3.5,4.53,2.75,6.29-.26.6-1,1.63-2.13,1.68-4.99.21-9.73.11-14.78.06-1.49-.01-3.12-1.65-2.48-3.04.76-1.64,2.29-2.67,2.42-4.86Z"/>
  <path class="cls-5" d="M774.46,722.45c6.91,4.87,10,12.38,9.38,20.72-.53,7.2-4.89,14.21-12.08,18.32-13.54,7.75-31.31,6.24-43.26-4.4-11.42-10.17-14.5-26.92-8.1-41.03,5.97-13.15,19.88-21.56,35.24-20.54,21.65,1.45,32.48,20.63,30.51,24.56-1.23,2.45-8.49.57-11.7,2.36ZM771.32,717.22c-3.14-6.17-7.66-11.35-13.72-14.48-8.48-4.37-18.67-1.39-23.37,6.78-3.18,5.52-4.64,11.71-3.88,18.03,16.84,3.3,22-9.01,40.97-10.33ZM739.82,752.29c9.31,9.29,23.28,10.2,33.18,2.02,4.61-3.8,7.04-9.42,6.27-15.07-.72-5.25-3.3-10.49-8.38-13.18-15.19-6.51-19.77,9.48-40.23,6.55.94,7.5,3.68,14.22,9.16,19.68Z"/>
  <path class="cls-1" d="M443.67,750.65c-2.23,6.27-6.75,10.72-12.58,13.3-15.49,6.88-30.8,3.68-45-5.45,1.43-5.84,2.12-11.4,3.95-16.83.37-1.11,2.57-.96,3.32-.96,1.32,0,.82,1.56,1.2,2.82,2.28,7.5,8.37,13.67,14.66,15.96,11.98,4.37,27.14.09,26.97-8.6-.04-2.22-1.68-4.17-3.68-5.63-8.4-6.13-22.15-5.03-32.96-14.8-8.37-7.56-8.94-19.16-1.45-27.33,3.45-3.76,7.17-6.35,12.52-7.01,10.07-1.24,26.2.8,31.49,10.15-.66,6.05-2.27,11.9-3.81,17.74-.21.79-2.62-.05-3.12-.56-.11-.11-3.05-15.95-19.22-21.53-5.71-1.97-11.88.14-14.34,5.5-1.54,3.34.28,6.73,2.93,8.95,10.48,8.76,21.87,6.35,33.01,14.98,5.86,4.54,8.76,11.81,6.09,19.31Z"/>
  <path class="cls-1" d="M606.12,765.59c-21.27.97-37.97-15.53-37.74-35.77.23-20.36,17.33-36.29,38.12-35.04,19.02,1.14,33.5,16.43,33.65,35.07.15,18.77-14.25,34.84-34.02,35.74ZM624.98,748.01c6.12-15.96.18-34.62-13.46-44.56-4.95-3.61-10.98-4.41-17-2.44-4.43,1.45-8.5,5.56-10.73,11.12-6.18,15.47-.91,33.85,12.26,44.14,5.14,4.01,10.93,5.31,17.36,3.28,4.65-1.47,9.18-5.31,11.57-11.54Z"/>
  <path class="cls-5" d="M787.69,696.44l18.11.09c1.63,0,2.87,1.72,2.96,2.94-.85,1.18-.32,2.31.43,3.27,4.77,6.07,9.1,12.14,14.19,17.91l16.15-19.37c-1.02-1.05-2.25-1.88-2.22-2.93.13-3.67,7.58-2.68,12.66-2.52,1.6.05,2.56,1.43,2.54,2.47-.06,3.79-4.79,1.05-11.37,8.87l-14.82,17.6,22.37,29.08c5.87,7.63,10.72,7.14,9.77,10.09-.32,1-1.19,1.9-2.54,1.9l-17.92.05c-1.47,0-2.49-.79-2.87-1.81-.41-1.08.53-2.29,1.26-3.56l-19.23-24.93-20.59,24.82c1.25,1.19,2.1,2.13,2.05,3.04-.03.62-.5,2.07-1.46,2.17-3.64.37-13.34,1.48-13.71-2.16-.11-1.13.95-2.08,2.16-2.47,4.05-1.07,7-3.77,9.66-6.91l18.98-22.35-20.32-26.31c-1.71-2.21-4.16-3.37-6.39-4.88-.89-.79-1.52-1.64-1.29-2.8.11-.56.58-1.27,1.42-1.29Z"/>
  <path class="cls-7" d="M902.52,757.91c10.94-7.54,9.72-19.93,12.95-19.95.9,0,3.16.95,2.93,2.41-1.51,9.73-9.43,24.16-21.07,25.84-8.65,1.24-16.2-2.47-19.75-10.36-2.12-4.71-2.99-9.85-3.01-15.2l-.13-34.14c-.02-6.27-8.17-5-8.59-8.19-.49-3.67,10.6-1.54,12.39-11.91l1.53-8.88c3.86-.87,7.83-.84,12.03-.04,1.61,6.24-.57,12.73-5.07,17.82,2.57,1.53,13.53-1.48,13.02,2.98-.14,1.23-1.21,2.05-2.57,2.08l-9.19.21-.04,40.81c0,5.26,1.93,16.49,7.61,17.95,2.66.68,4.82.03,6.95-1.44Z"/>
  <path class="cls-5" d="M457.5,745.18c.27.09.66-.31.65-.84l-.24-37.97c-.05-8.09-8.8-4.87-7.23-9.51.32-.95,3.58.6,4.32-.82.15-.28.09-.78.13-1.12,9.21-7.3,4.87-17.09,8.44-17.64s7.05-.51,10.89.18c1.6,6.46-.72,13.07-5.21,17.99l11.22.49c1.28.06,1.99,1.55,1.95,2.36-.05.86-.92,1.92-1.99,1.96l-9.82.3.07,41.59c0,5.48,2.03,16.3,8.17,17.36,2.57.45,4.72-.29,6.79-1.83,11.1-8.25,9.06-20.51,13.05-19.65.74.16,2.59,1.16,2.39,2.33-1.2,7.22-4.66,13.85-9.64,19.46-6.62,7.45-18.02,9.17-26,2.73-5.13-4.13-7.86-11.03-7.94-17.36Z"/>
  <path class="cls-1" d="M523.32,715.97c-.88-.05-.92.77-.02.75v2.25c-.09-.11-.95.33-.92.82.94,12.96-1.05,25.8.99,38.12.29,1.75,1.74,3.09,2.61,4.81s-1,3.16-2.65,3.15l-14.2-.03c-.95,0-1.6-.5-2.09-1.04-2.15-2.4,2.02-3.22,2.01-6.89.35-.04.75-.1.99-.24.61-.36.53-1.04.53-1.97v-50.98c0-.75-.04-1.16-.12-1.69-.1-.6-1.11-.24-1.37-.59l-1.87-2.57c-.68-.93-.81-1.89-.36-2.73,1.13-2.11,10.32-1.51,13.44-1.27,2.76.21,3.06,2.51,3.17,5.91,4.23-5.05,10.56-6.08,16.96-6.57,11.05-.84,18.57,7.06,20.33,16.89.35,1.93,4.67,4.19,1.35,6.22-3.9,2.39-9.15,3.58-13.6,5.58-1.51.68-2.93-.35-3.58-1.19-1.32-1.7.67-2.36,1.44-4.13,1.84-4.21.73-11.65-3.4-14.72s-11.16-1.87-14.71,1.13-4.16,7.15-4.94,10.99Z"/>
  <path class="cls-4" d="M240.65,476.12c-2.47-8.3-7.18-12.93-15.99-15.03,8.33-2.08,13.54-6.87,15.63-15.91,2.1,8.42,7.04,13.7,16.25,15.56-8.01,1.28-13.35,6.26-15.89,15.38Z"/>
  <path class="cls-4" d="M206.11,506.52c-1.2-8.56-6.74-14.08-15.91-16.16,8.35-1.37,13.47-6.75,15.51-15.26,2.26,7.97,6.95,12.9,15.15,14.96-8.31,2.4-13.49,7.82-14.75,16.46Z"/>
  <path class="cls-4" d="M181.94,543.65c-1.94-6.96-6.02-12.25-14.47-14.59,7.63-2.8,12.66-7.23,13.87-15.59,1.93,7.92,6.54,12.92,15.1,15.15-7.94,2.13-12.71,6.57-14.51,15.03Z"/>
  <path class="cls-4" d="M175.88,589.71c-1.81-7.84-6.36-12.54-14.29-14.55,7.71-2.34,12.37-7.13,13.66-14.4,2.53,7.47,6.56,11.89,14.24,13.97-7.71,2.42-12.54,7.31-13.6,14.97Z"/>
  <path class="cls-4" d="M190.29,629.33c-1.68-6.32-5.63-11.03-12.6-12.59,1.76-2.15,4.35-2.26,6.46-3.81,3.18-2.66,4.83-6.2,5.49-10.26,2.32,7.59,7.31,12.15,14.71,13.35-7.63,1.11-12.18,5.58-14.06,13.31Z"/>
  <path class="cls-4" d="M213.41,661.96c-1.53-6.1-5.4-10.8-12.62-12.24,6.36-2.13,10.63-5.89,12.17-12.77,2.24,6.65,6.55,11.06,13.19,12.13-6.7,2-10.96,5.54-12.74,12.88Z"/>
  <path class="cls-2" d="M509.06,757.91c.57-1.79.95-3.72.75-6.02l.02-45.59c-.38-1.49-.76-2.69-.73-3.87.25.35,1.27,0,1.37.59.09.54.12.94.12,1.69v50.98c0,.92.07,1.61-.53,1.97-.24.14-.64.2-.99.24Z"/>
  <path class="cls-2" d="M649.93,757.91c.58-1.79.94-3.72.75-6.02l-.03-45.65c1.39,1.64.87,50.95.27,51.43-.22.17-.65.19-.99.24Z"/>
  <path class="cls-2" d="M455.14,694.92c-.04.35.02.84-.13,1.12-.74,1.42-4-.14-4.32.82-1.57,4.64,7.18,1.43,7.23,9.51l.24,37.97c0,.53-.38.93-.65.84l-.5-40.51c-.04-3.6-8.27-3.64-8.52-6.33-.23-2.46,4.99-3.06,6.66-3.41Z"/>
  <path class="cls-6" d="M501.16,392.09c.34,1.46.15,3.17-.49,3.5-.87.45-2.25.4-3.35,0-1.9-.68-1.47-2.71-.49-3.82,1.11-1.26,3.79-2.01,4.33.32Z"/>
  <path class="cls-6" d="M560.33,567.21c-1.68.53-3.03-.23-3.84-.87-.86-.68-.91-2.53.13-3.57,1.17-1.18,3.32-.85,4.02.13.85,1.19,1.37,3.79-.3,4.32Z"/>
  <path class="cls-6" d="M262.38,362.93c-.54-1.07.09-2.39.77-3.12.61-.66,1.98-1.78,3.25-.96s1.68,3.53.58,4.52-3.68,1.37-4.6-.43Z"/>
  <path class="cls-2" d="M523.38,757.91c-2.04-12.32-.05-25.16-.99-38.12-.04-.49.83-.94.92-.82l.07,38.94Z"/>
  <path class="cls-6" d="M424.4,334.99c-1,1.24-3.72,1.39-4.91.3s-.25-2.68.36-3.42c.76-.93,2.63-.9,3.66-.19.77.53,1.88,2.1.89,3.32Z"/>
  <path class="cls-6" d="M491.84,526.57c-1.33-1.3-1.26-3.88.32-4.72,1.22-.65,2.63-.25,3.07.74.5,1.12.77,2.34.03,3.37-.68.94-2.41,1.61-3.42.61Z"/>
  <path class="cls-6" d="M474.24,468.32c-1.21.58-2.52-.4-3.15-.93-.91-.76-1.28-2.84-.22-3.76s2.99-.38,3.54.43c.83,1.23,1.39,3.52-.17,4.26Z"/>
  <path class="cls-6" d="M321.42,313.29c.2,2-.21,3.14-1.21,3.66s-2.21.65-2.79-.88c-.51-1.36-.56-2.78.33-3.59,1.06-.95,3.45-1.33,3.66.8Z"/>
  <path class="cls-6" d="M538.75,657.79c.03,2.04-.3,3.13-1.3,3.62-.93.46-2.22.44-3.21-.22-.66-.44-1.22-1.98-.47-3.01,1.09-1.49,3.48-1.3,4.97-.39Z"/>
  <path class="cls-6" d="M566.87,461.25c1.49-1.02,2.98-.39,3.3.65.35,1.12.66,2.71-.52,3.36-.82.45-2.67.47-3.09-.3-.53-.97-.86-2.91.3-3.71Z"/>
  <path class="cls-6" d="M364.79,356.76c-.55,1.4-2.34.91-2.93.37-.77-.71-1.01-2.23-.66-2.96.5-1.03,1.97-1.69,3.07-1.01.94.59,1.09,2.16.52,3.6Z"/>
  <path class="cls-3" d="M429.38,402.42c-1.27.73-1.96-.92-2.18-1.66-.38-1.24-.11-2.72,1.43-3.1,1.01-.25,1.9.86,2.06,1.56.23.96.14,2.38-1.31,3.2Z"/>
  <path class="cls-2" d="M808.77,699.47c-.09-1.22-1.34-2.93-2.96-2.94l-18.11-.09c-.31-.43.34-.59.87-.7l19.14.19c.88,0,1.46,1.36,1.71,1.82s.42,1.9-.65,1.71Z"/>
  <path class="cls-6" d="M375.53,436.56c.92.64.66,1.99.13,2.62-.63.75-1.67.99-2.76.55-.83-.34-1.73-1.31-1.05-2.57.62-1.17,2.43-1.47,3.69-.59Z"/>
  <path class="cls-6" d="M501.44,604.78c-.9.53-2.13-.19-2.65-.78s-1.01-2.16-.09-2.86,2.45-.38,3.01.38c.51.71,1,2.52-.27,3.26Z"/>
  <path class="cls-6" d="M433.51,550.39c1.3-1.09,2.38-.62,2.8.41.33.83.61,2.34-.05,2.8-.8.55-2.39.73-2.92.09s-.68-2.58.18-3.3Z"/>
  <path class="cls-6" d="M433.07,609.47c-1.06-.22-1.49-.53-1.41-1.14.23-1.8,1.72-2.9,2.76-2.67,1.15.25,1.54,1.36,1.55,2.18.03,1.24-1.04,2.01-2.9,1.63Z"/>
  <path class="cls-6" d="M438.9,519.55c.75-.53,2.34-.41,2.84.34.42.63-.04,1.93-.6,2.76-.59.87-1.98.87-2.54-.14-.45-.82-.62-2.3.3-2.96Z"/>
  <path class="cls-6" d="M427.74,466.43c1.17-.43,2.06.2,2.19.87.28,1.46,0,2.48-.81,2.73-1.4.42-2.79.43-2.9-.78s.25-2.35,1.52-2.81Z"/>
  <path class="cls-6" d="M331.06,375.09c1.08-.3,1.89.42,2.09,1.03.38,1.15.22,2.44-.76,2.58-1.36.2-2.54.17-2.74-.86-.23-1.17.16-2.41,1.4-2.75Z"/>
  <path class="cls-6" d="M411.69,481.64c-.45.85-2.01.73-2.84.26-.59-.34-1.41-1.09-1.07-2.06.37-1.05,2.12-1.13,3.07-.78.74.27,1.32,1.67.84,2.58Z"/>
  <path class="cls-6" d="M457.32,551.88c-1.32.19-1.98-.06-2.46-1.23-.32-.79.57-1.91,1.84-2.16,1.14-.22,2.24.07,2.41,1.06.21,1.19-.15,2.09-1.8,2.33Z"/>
  <path class="cls-6" d="M435.97,578.76c1.02-.21,1.82.52,2.23.99.77.88.09,2.25-.96,2.49s-2.21.29-2.56-.98c-.24-.85-.05-2.22,1.28-2.5Z"/>
  <path class="cls-6" d="M384.27,684.29c1.2-.42,1.88.19,2.11.93.38,1.24.39,2.22-.61,2.59-1.23.45-2.08-.15-2.72-1.11s-.14-1.93,1.23-2.41Z"/>
  <path class="cls-6" d="M358.61,402.9c1.25-.76,2.24-.05,2.66.58.72,1.07.27,1.99-.34,2.46-.98.75-2.09,1-2.57.17-.51-.87-.9-2.51.26-3.21Z"/>
  <path class="cls-6" d="M315.44,428.47c.91-.89,2.01-.63,2.64-.1.97.81.5,1.96-.46,2.86-.45.42-1.12.86-2.12.09-.65-.5-1.22-1.71-.07-2.85Z"/>
  <path class="cls-6" d="M351.12,429.61c-.4,1.18-1.51,1.51-2.58,1.37s-.96-1.45-.48-2.59c.45-1.06,1.41-1.18,2.53-1,.69.11.91,1.12.53,2.21Z"/>
  <path class="cls-6" d="M322.94,400.75c.94-.96,2.04-.98,2.62-.08.41.63.33,2.14-.37,2.83-.45.45-1.17.71-2.08-.01-.62-.49-1.32-1.57-.17-2.74Z"/>
  <path class="cls-6" d="M444.75,643.6c-.72,1.18-1.95.49-2.65.16-1.01-.49-1.69-3.17-.8-3.14,1.31.05,2.31.31,2.84.65s1.13,1.48.61,2.33Z"/>
  <path class="cls-6" d="M420.9,631.11c-1,.39-2-.07-2.43-.29-.5-.26-.96-.98-.57-1.93.26-.62.85-.91,1.99-.89,1.07.02,1.65.18,1.91.92s.46,1.66-.9,2.2Z"/>
  <path class="cls-6" d="M287.37,408.74c-.77.09-1.89.16-2.34-.13s-.51-1.09-.33-2.03c.1-.54.78-.95,1.82-1s1.63.15,1.86.94.24,2.07-1.02,2.21Z"/>
  <path class="cls-6" d="M418.8,667.92c-.65.78-1.92.61-2.4.17-.43-.39-1.31-1.36-1.07-2.17.32-1.07,1.66-1.2,2.27-.83.86.52,2.09,1.75,1.2,2.82Z"/>
  <path class="cls-6" d="M460.01,612.53c.85-.2,1.77.42,2.02.96.41.88.57,2.38-.66,2.47-.99.07-2.01-.12-2.59-1.24-.33-.64-.06-1.88,1.23-2.19Z"/>
  <path class="cls-6" d="M395.29,650.75c-.84,1.18-3.29.12-3.45-1.64-.1-1.06,1.58-1.12,2.26-1.14,1.1-.03,2.08,1.54,1.2,2.78Z"/>
  <path class="cls-6" d="M389.75,416.82c-.13-.86.27-2.06.95-2.65.79-.67,1.65.23,1.98.71.59.86.58,2.06-.1,2.37-1.13.52-2.64.81-2.83-.43Z"/>
  <path class="cls-6" d="M435.05,502.28c-.07,1.03-1.11,1.06-1.99.89-.73-.14-1.93-.62-1.69-2.21.15-.99,1.47-1.05,2.13-.9.77.18,1.62,1.06,1.54,2.22Z"/>
  <path class="cls-6" d="M403.08,394.07c.92-.86,1.66-.61,2.07-.17.8.87.65,1.72-.1,2.51-.41.44-1.28.54-2-.02-.5-.38-.98-1.36.03-2.32Z"/>
  <path class="cls-6" d="M483.38,620.73c.64-.36,1.74-.22,1.98.3.33.71.28,2.06-.21,2.49-.6.53-2,.31-2.41-.46s-.35-1.78.64-2.34Z"/>
  <path class="cls-6" d="M392.37,456.07c.87-.83,1.74-.64,2.17,0,.53.79.57,1.68-.3,2.39-.41.33-.99.7-1.76.05-.56-.47-1.22-1.38-.12-2.44Z"/>
  <path class="cls-2" d="M523.3,716.72c-.9.02-.86-.8.02-.75-.05.24-.02.51-.02.75Z"/>
</svg>