<?xml version="1.0" encoding="UTF-8"?>
<svg id="Layer_1" data-name="Layer 1" xmlns="http://www.w3.org/2000/svg" viewBox="0 0 1080 1080">
  <defs>
    <style>
      .cls-1 {
        fill: #532367;
      }

      .cls-2 {
        fill: #8e7d63;
      }

      .cls-3 {
        fill: #5a3271;
      }

      .cls-4 {
        fill: #8d7a5f;
      }

      .cls-5 {
        fill: #8b795d;
      }

      .cls-6 {
        fill: #8b775b;
      }

      .cls-7 {
        fill: #928571;
      }

      .cls-8 {
        fill: #562c6b;
      }

      .cls-9 {
        fill: #a9a298;
      }
    </style>
  </defs>
  <path class="cls-2" d="M510.75,496.91c-8.21.62-15.99,1.01-24.12,1.29l-36.63,1.23-43.51,1.21c-1.59.04-1.47,3.6-1.72,4.72l-1.94,8.6c8.3,2.9,16.54,3.56,24.86,4.8l20.9,3.11c3.88.58,14.2,1.82,15.39,4.01.17.31-.33,1.31-.86,1.28-11.75-.76-23.12-2.92-34.91-4.75l-26.48-4.09c-2.21,4.27-4.23,7.92-6.16,12.96l43.01,17.02,49.99,19.5c.12.05,2.07,2.06,1,2.46-3.53,1.32-36.8-12.3-43.47-14.97l-49.73-19.88c-1.3-.52-2.4-.76-3.66-.28-.48.18-7.16,8.38-7.58,10.74,16.66,11.57,33.49,21.84,50.79,31.95,2.28,1.33,4.71,1.65,6.28,4.27-1.83.07-4.74.86-6.73-.35l-29.27-17.78-24.8-15.34-13.46,11.85,28.9,28.6c3.19,3.16,6.55,5.61,9.57,9.34-2.71,1.5-4.58-.1-6.47-1.89l-16.92-16.04-18.17-16.7c-2.03.41-12.79,6.59-13.14,7.9-.22.79.12,1.62.71,2.55l25.14,39.26c1.65,2.57,1.99,4.72,1.6,8.57-1.9-1.24-2.81-3.39-4.26-5.68l-25.74-40.85c-3.39-5.37-5.81.86-9.5-1.27-.5-2.04,1.12-4.37,2.22-6.37,19.42-35.3,28.17-74.82,4.58-110.57-4.75-7.2-9.62-13.5-16.38-18.99-12.34-10.02-25.31-18.58-40.22-24.24-3-1.14-5.69-2.28-8.09-4.81,1.91-1.89,3.7-2.28,6.68-3.24l-4.66-44.03c-.41-3.83-3.25-21.62-.63-21.75,2.45-.12,2.84,8.52,3.21,11.99l2.59,24.45c.79,7.42,1.07,20.33,3.58,27.62,4.61-.79,9.86-.64,14.21-2.58,2.2-2.73,2.56-7.76,3.06-11.5l8.62-64.12,3.61-23.93c.11-.7.57-1.22,1-1.15.32.05,1.34-.15,1.26.64l-4.74,43.14-7.08,57.07c5.37.67,10.14.52,15.2.7,1.93.07,3.23-.85,3.86-2.57l6.36-17.64,16.89-45.81c.29-.79,1.1-1.47,1.55-1.68.52-.23,1.42-.17,1.58.29.2.61.44,1.84.12,2.66-7.96,20.48-15.66,40.67-22.24,61.66-.39,1.24-.27,2.35.23,3.27.42.77,11.04,3.78,12.73,2.88,6.36-9.71,11.67-19.46,17.3-29.43l14.38-25.45,15.48-26.42c1.41-2.41,3.3-4.44,5.33-6.85,2.03,1.5.78,3.7-.25,5.44l-21.39,36.37-27.26,48.14c3.94,1.94,7.84,4.49,12.47,5.59,2.94-.65,5.4-4.88,7.5-7.19l13.98-15.35,11.56-12.38c3.38-3.62,6.9-6.97,10.68-10.56,1.78,2.37.13,4.23-1.32,5.79l-13,14-24.92,27.95c-.95,1.14,8.71,8.69,10.4,9.83,21.13-16.47,42.1-32.7,64.25-47.99,2.24-1.55,3.9-2.98,6.01-4.57l13.52-10.17c.69-.52,2,.32,1.61.88-.26.38,0,1.71-.56,2.19-5.31,4.58-10.63,8.47-16.4,12.83l-64.48,48.58c-.85.64-.41,2.06.09,2.65,3.91,4.66,7.37,9.15,10.7,14.62l38.05-20.59c15.73-8.51,10.35-1.51,10.09-1.37l-38.08,20.91c-2.88,1.58-5.69,2.54-7.83,5.32,1.7,2.83,2.94,5.77,5.24,8.49l112.33-39.32c1.12-.39,1.87-.2,2.08.35.22.59.25,1.77-.78,2.19-19.13,7.86-38.09,14.79-57.82,21.46l-55.25,18.68,1.94,11.67c2.72.61,5.05-.04,7.71-.5l44.57-7.72c1.05-.18,1.76.27,2.06.77.46.77-.38,2.07-1.51,2.28l-24.48,4.65-24.81,4.32c-2.46.43-2.13,2.56-2.06,4.45l.55,16.14c12.44.55,24.27.17,36.47-.33l39.21-1.6,25.97-.65c.92-.02,1.74.9,2.39.8s1.17,2.25.29,2.31ZM363.77,557.74c-1.8-.12-3.11,1.48-3.75,3.5,1.63-.63,3.81-1.23,3.75-3.5,31.31-23.35,44.1-48.06,37.17-87.99-1.21-6.95-3.52-12.6-6.86-18.81-19.01-35.24-49.16-48.17-88.92-44.33,24.58,3.2,48.06,12.36,67.23,28.44s26.47,39.72,21.44,63.73c-4.41,21.07-14.84,40.19-29.06,56.32-.92,1.04-1.03,1.64-1,2.64ZM315.99,413.09c9.92,4.13,19.81,8.01,29.15,14.23,13.8,9.2,25.51,21.58,33.03,36.48,6.89,13.64,4.52,36.89.79,51.68-3.07,12.15-8.93,22.9-15.13,33.93-1.27,2.25-3.79,3.8-4.65,6.84,2.14-1.8,3.48-3.81,5.41-6.11,8.61-10.29,15.41-21.92,20.67-34.66,3.93-9.51,5.94-19.33,6.36-29.7,1.52-37.47-30.03-59.74-61.9-70.2-4.51-1.48-8.7-3.09-13.65-3.18-2.21-1.27-4.82-2.14-7.88-1.31,2.61,1.01,5.16,1.64,7.81,2.01ZM378.58,478.94c-1.52-6.95-3.62-14.25-7.35-20.38-13.73-22.56-39.77-37.92-65.43-44.13,14.25,6.72,27.9,13.04,39.36,23.88,9.36,8.86,17.65,18.53,22.62,30.48,4.36,10.48,4.62,21.48,4.2,32.77-.68,18.26-7.71,33.73-15.48,50.8,14.7-15.69,26.51-53.24,22.08-73.42ZM360.09,537.05c10.2-26.07,13.68-50.82-.25-75.92-8.53-15.37-27.52-30.48-43.32-37.57,6.35,4.81,12.26,9.26,18.24,14.73,22.21,20.29,32.25,49.79,28.03,79.71-1.26,8.91-3.53,17.05-6.3,25.52,1.85-1.54,2.48-3.59,3.6-6.46Z"/>
  <path class="cls-1" d="M252.81,660.99c-3.17.98-6,.81-9.86.28l24.58-68.48-17.87-13.98c-.95-.75-1.89-1.03-2.02-2.02-.15-1.17.59-1.76,1.31-2.75l3.51-4.89c1.76,1.53,18.62,11.13,20.41,8.43l24.6-67.44c.88-2.41,2.6-3.79,4.48-3.95,2.1-.19,4.53.46,5.48,2.85l26.66,66.83,6.01,15.08,3.35,7.92,22.5,56.77c1.08,2.72.27,5.44-1.55,6.63-2.31,1.52-5.15,1.7-7.68-.27l-80.64-62.64c-2.03,1.93-2.53,4.4-3.46,6.97l-19.8,54.66ZM325.87,579.78l-23.13-56.72-21.27,58.46c14.81,2.84,30.15,2.94,44.4-1.74ZM351.94,646.35l-22.56-57.96c-15.72,5.25-31.06,5.21-48.02,3.1l70.59,54.86Z"/>
  <path class="cls-5" d="M455.85,655.27c.65-.33,2.35.58,2.38-.65h.66s0,1.13,0,1.13c-5.22,3.5-12.78,3.68-17.39-1.89-2.9-3.5-4.45-8.34-4.51-13.02l-.42-31.4c-.04-3.31-4.14-4.64-6.49-6.15,9.32-2.03,9.89-8.35,10.65-15.69,2.45-.31,4.69-.24,7.39-.06,1.05,6.11-1.65,12.1-7.57,14.85,1.4,2.2,20.1-1.37,12.66,1.89l-8.18-.26.06,34c0,5.52.39,11.43,4.26,15.42,1.85,1.91,4.47,2.85,6.49,1.83Z"/>
  <path class="cls-4" d="M790.3,655.52l-.06,1.37c-3.95,1.66-8.9,2.17-13.03-.83-4.45-3.24-6.65-8.91-6.71-14.51l-.33-30.55c-.04-4.15-3.03-6.61-7.02-7.5,9.28-2.45,10.05-7.37,10.99-15.86,2.73-.13,5.04-.4,7.67.09.33,6.29-1.99,12.06-7.78,14.8l13.95,1.39c-2.97,1.07-5.75-.57-9.64,0l-.07,32.87c0,4.51.69,8.81,2.11,12.99,1.53,4.49,5.61,6.78,9.91,5.74Z"/>
  <path class="cls-5" d="M727.92,621.5c.12.37.37.69.74.84l.13.73c.12,1.46,1.97,1.9,2.89,3.14l16.21,21.79c2.85,3.83,5.83,6.72,9.62,9.55l-16.37.23c1.08-1.99,1.17-3.45-.06-5.06l-15.2-19.91c-.28-.36-.78-.55-1.58-.94-.14-.76-.42-1.64-1.08-2.5l-16.32-21.28-5.61-4.75c5.59-.44,10.79-.29,16.18-.11-1.18,2.09-1,3.67.23,5.23,3.42,4.36,6.47,8.71,10.23,13.04Z"/>
  <path class="cls-6" d="M620.2,603.32c6.44-.04,10.92,9.46,10.97,16.69l.18,29.17c.02,3.06.76,5.48,2.51,8.47-4.74.18-8.54.3-13.17-.05,2.2-2.61,2.64-5.21,2.64-8.33v-26.98c0-4.7-1.59-15.05-6.3-15.98-.08-.37-.44-.54-.79-.49-.93-.58-2.31-.35-3.36-1.1-.65-.47-.56-1.42.26-1.25,2.36.29,4.72-.12,7.06-.14Z"/>
  <path class="cls-5" d="M883.57,657.67c1.65-2.95,2.48-5.41,2.49-8.49l.06-34.41c0-2.89-.74-5.15-2.82-7.5l10.61-4.05.19,46.01c.01,3.09.8,5.56,2.4,8.4l-12.93.04Z"/>
  <path class="cls-6" d="M596.05,603.47c.08.32.02,1.12.56.85-.27,2.22-.2,4.47,0,6.69-.59-.13-.55.54-.51,1.01.03.33.07.62.51.49-.18,4.28-.37,8.61.09,12.87-1.56,2.13-.39,5.17.34,7.44-1.1,4.99-.51,10.66-.44,15.69-.59-.13-.56.55-.5,1.01.04.33.1.61.52.49v1.5c-.41.24-.48,1.04.18.8.03,1.8,1.06,3.22,2.03,5.27-4.39.46-8.25.29-12.83.03,1.6-2.79,2.53-4.87,2.53-7.68l.04-37.43c0-2.81-.53-5.27-1.43-7.49-.24-.58.21-1.42.1-2.03,2.93.4,5.92-.27,8.81.48Z"/>
  <path class="cls-6" d="M860.38,604.73l.13-1.22c5.72,1.41,10.95,3.43,12.93,10.67.69,2.51,1.7,5.92,1.71,9.01l.08,27.58c0,2.63.87,4.6,2.49,6.68-3.69.52-6.89.48-10.35.09l-.17-35.2c-.03-5.58-1.79-15.76-6.82-17.61Z"/>
  <path class="cls-6" d="M482.14,602.97c-.07.71.94.76.81,0,.47.06.94.11,1.4.2-.02.9.37,2.04,1.44,1.9.28,1.76.52,3.56.43,5.35-.12,2.45-.91,5.07.15,7.37l-.23,34.48c0,.52-.47,1.12-.2,1.76.21.49.83,1.09,1.43.63.15.99,1.03,1.69.96,3-4.24.1-8.31.38-12.43-.06.12-1.13.83-1.59,1-2.24,1.21-.02,1.51-1.53,1.28-2.52-.1-.4.16-.94.03-1.32.57,0,1.42.22,1.69-.38.23-.51-.05-.92-.38-1.13-.38-.24-.75-.36-1.15-.15l-.1-41.81c0-1.64-.46-3.31-.02-4.94,1.3-.02,2.61,0,3.9-.14Z"/>
  <path class="cls-4" d="M654.37,606.53l.8.16c-5.62,5.37-8.95,14.54-7.42,22.4-.09.45-.65,1.01-.56,1.48,1.01,5.46,2.59,10.64,6.01,15.57,5.93,8.58,17.15,12.22,26.91,8.12.47.04,1.39.08.77.81-11.57,5.43-25,3.73-33.55-5.23-9.45-9.9-9.97-24.74-2.35-35.69,2.46-3.54,5.68-6.27,9.4-7.61Z"/>
  <path class="cls-5" d="M399.73,624.45c5.95,1.55,12.2,3.08,17.54,6.37,6.28,3.88,8.34,10.65,5.69,16.9-.88.47-1.86.72-2.85.77-.22-13.28-19.12-9.26-30.2-19.38-2.62-2.4-4.17-5.09-4.58-8.28.16-1.51.17-3.03.05-4.55l.11-.72c.86-.22,1.57-.68,2.86-.8-.19,8.54,9.41,9.17,11.38,9.69Z"/>
  <path class="cls-4" d="M538.35,606.5c.55.29.6.94.63,1.5-2.18,1.46-3.56,4-4.62,6.82-4.73,12.57-1.03,26.55,8.44,35.9,3.33,3.29,7.03,5.28,11.98,5.52.36.22.98.49.39.95-12.92,2.13-25.03-6.72-28.85-18.1-4.22-12.57.56-26.85,12.03-32.6Z"/>
  <path class="cls-4" d="M555.58,602.22c1.27,1.02,2.97,1.18,4.56,1.25,11.05,2.4,18.44,12.28,19.88,22.4,1.61,11.26-3.6,22.5-13.2,27.64l-1.36-.55c11.09-11.13,8.85-30.25-1.44-42.11-3.23-3.73-7.16-6.23-12.18-7.3l.13-1.42c1.54.05,2.7.33,3.62.09Z"/>
  <path class="cls-4" d="M846.19,620.33c-.36.35-.29.78.06,1.1-9.44,3.09-14.39,12.63-11.93,22.51,1.11,4.46,3.9,8.16,7.72,9.38,4.53,1.45,8.67-.36,12.53-3.26l.05.71c-4.26,4.97-9.36,9.07-17.4,7.13s-12.29-9.34-11.03-17.88c1.4-9.53,10.25-14.43,17.87-19.22l.85-.54c.32-.2.93.23,1.27.06Z"/>
  <path class="cls-8" d="M261.8,427.15c-1-9.33-6.13-15.18-15.71-15.66,9.09-1.85,14.69-6.62,15.05-15.47,2.2,9.13,7.25,14.06,16.38,14.68-9.45,1.54-14.92,6.99-15.72,16.44Z"/>
  <path class="cls-8" d="M248.84,434.28c-9.87,4.93-11.28,1.88-15.38,15.37-1.52-8.14-6.2-12.62-14.8-14.24,8.34-1.34,13.69-6.9,14.55-15.04,1.69,8.83,6.94,14.45,15.63,13.91Z"/>
  <path class="cls-8" d="M228.34,466.5c-11.29,3.55-11.43,3.92-14.9,15.16-.62-8.72-6.16-13.91-15.38-14.53,8.86-1.57,14.78-5.99,15.03-14.95,1.77,8.38,6.69,13.38,15.25,14.32Z"/>
  <path class="cls-8" d="M217.24,505.73c-5.2,2.99-7.32,7.75-8.59,13.21-1.36-8.49-6.28-13.45-14.53-14.07,7.92-1.08,13.07-6.02,14.31-14.56,1.8,8.68,5.2,13.21,14.24,13.72-1.43,2.33-3.58.64-5.42,1.7Z"/>
  <path class="cls-2" d="M399.73,624.45c-1.96-.51-11.57-1.15-11.38-9.69-1.29.11-2,.58-2.86.8,1.06-7.26,8-12.35,15.65-12.55,7.65-.2,15.09,1.65,20.76,6.76-.07,4.37-1.31,8.32-2.23,12.78.72,1.78-1.86,1.69-.94-.16-2.28-8-8.17-14.07-15.76-17.03-4.38-1.71-9.73-.65-12.61,3.11-3.18,4.16-1.17,9.3,2.72,12.23,2.21,1.67,4.74,2.13,6.63,3.75Z"/>
  <path class="cls-3" d="M382.5,711.99c-.41,2.32-4.69.1-5.39-1.82-.94-2.54-2.19-4.42-4.2-6.83-.86,2.77-.04,5.59-.6,8.89-.13.8-2.99.92-3.06-.09-.39-5.49-.22-11.5-.06-16.82,5.74-2.94,6.04,4.95,9.52,8.19.75-3.09.33-5.55.03-8.39,1.38-.35,2.44-.43,4.13-.2-.28,5.42.71,10.98-.38,17.08Z"/>
  <path class="cls-3" d="M752.83,712.44c-1.1-.4-2.98-9.56-5.93-6.04-1.1,1.31.02,4.09-.66,5.79-.35.88-3.46.93-3.53-.02-.45-5.83-.23-11.59-.1-17.35,4.92.16,11.8-1.24,14.15,3.36,2.79,5.46-5.94,5.2.65,14.32-1.27.58-3.17.44-4.57-.07ZM751.64,698.61c-1.59-.46-3.97-.77-4.9.2-.7.74-.31,2.55.01,3.17.43.84,5.26,1,5.79-.66.27-.86.36-2.35-.91-2.71Z"/>
  <path class="cls-1" d="M534.25,712.01c-.28,1.84-3.97.9-4.61-.59-1.5-3.44-3.4-6.04-5.26-8.97l-.48,9.82c-.04.84-3.04.81-3.09-.2-.3-5.44-.02-11.33-.02-16.76,5.18-3.27,6.61,5.25,9.83,8.93,1.16-1.6-.98-9.09,1.58-9.46.93-.13,2.46-.01,2.39,1.67-.22,5.09.51,9.97-.33,15.56Z"/>
  <path class="cls-8" d="M483.32,707.35c-2.09-.16-4.28-1.79-3.13-3.14,1.27-1.5,5.27-1.21,7.13-.64,1.2,2.64.39,6.16.19,9.17-2.31-.56-4.15-.22-6.01.2-4.45.99-6.92-1.47-7.99-5.34-.75-2.69-1.31-4.59-.09-7.27,1.18-2.59,2.63-4.8,5.08-5.41,3.14-.78,5.73.12,7.97,2.49.77.81,1.31,2.3.39,3.2-2.61,2.54-2.95-2.22-5.83-2.3-1.07-.03-2.11.62-2.94,1.93-1.7,2.7-1.15,7.33,1.8,9.21,1.39.88,3.27-1.22,3.44-2.09Z"/>
  <path class="cls-8" d="M229.07,539.32c-5.3,2.24-7.42,6.6-8.41,12.43-1.5-4.76-1.96-8.79-6.13-10.55l-7.06-2.98c7.6-.64,11.99-5.54,12.57-12.93,3.88,9.42,2.54,8.21,10.79,13.11.74,1.2-.28,1.72-1.76.92Z"/>
  <path class="cls-8" d="M846.93,707.38l-2.63-.85c-.66-.21-.84-2.29-.24-2.68,1.82-1.17,4.3-.51,6.9-.48.7,2.98,1.06,6.3-.17,9.18-.7.63-2.14-.91-2.71-.74-2.53,1.3-5.91,1.87-8.4,0-3.85-2.89-4.95-13.1,1.3-16.44,2.82-1.5,7.33-.71,9.24,2.32.46.72.92,2.02.63,2.52-.35.59-2.93,1.81-3.29,1.17l-1.6-2.92c-.55-1-3.05-.16-4.15,1.2-1.74,2.15-1.64,9.4,1.89,9.84,1.16.14,3.1-.89,3.23-2.13Z"/>
  <path class="cls-2" d="M506.86,608.86c-.32-1.09-1.27-1.93-2.27-2.38-.16-.07-.48-.05-.66-.03.61-.75-.3-1.48-1.09-1.48-.39,0-.83.37-1.22.63-1.61-.22-3.58-.24-5.22.09-.7-.49-1.4-1.05-1.67-1.89,5.45-2.24,11.84-1.85,16.95,1.77,4.98,3.53,3.51,9.14,7.26,13.19-2.81,1.19-11.32,5.53-13.33,4.59,5.16-3.86,2.54-10.01,1.24-14.49Z"/>
  <path class="cls-8" d="M705.04,713.07c-3.39.25-7.68-.69-7.37-4.66.22-2.83,5.09,1.03,7.41,1.38.82.12,2.57-.8,2.03-1.98-1.14-2.47-4.19-2.23-6.35-3-2.97-1.06-3.13-4.27-2.29-6.78.94-2.83,3.73-3.67,6.94-3.31s5.75,1.84,5.78,4.66c-2.7.52-3.92.2-5.7-1.07-.59-.42-1.53.03-1.9-.08-.64-.19-1.91,1.18-.98,2.02,1.27,1.15,10.55,1.72,9.54,7.81-.54,3.24-3.2,4.72-7.11,5.01Z"/>
  <path class="cls-8" d="M320.91,712.04c-.03,1.23-2.91.97-3.62.38-1.55-1.3-.08-6.27-1.35-6.83-.93-.4-2.66-.53-3.55,0-1.05.62.48,5.33-1.18,6.85-.65.6-3.23.79-3.32-.28-.5-5.61-.39-11.4-.11-16.85.7-.81,2.86-.67,3.67-.32,1.47.64-.29,5.88,1.19,6.7.78.43,1.91.22,2.75.22,2.5-.01-.04-4.67,2.07-6.81.59-.59,3.12-.62,3.25.22.77,5.22.37,10.67.21,16.73Z"/>
  <path class="cls-8" d="M508.74,704.36c.16,2.08-5.03.09-5.6,1.51-.45,1.12-.91,3.1.69,3.35,2.23.35,4.55-.44,6.36.39.66.31.68,2.82,0,2.92-3.85.54-7.74.36-11.96.03-.54-5.98-.67-11.85.16-17.71l11.98-.46c.13,1.13-.06,2.44-.21,3.86-2.28.47-4.68-.48-6.9.59-1.06.51-.57,1.95-.17,2.54.86,1.3,3.76.43,5.28.96.53.18.32,1.19.38,2Z"/>
  <path class="cls-8" d="M342.42,704.37c.1,2.19-4.77.07-5.77,1.45-.7.97-.63,3.24.98,3.44,2.16.27,4.34-.45,6.21.38.65.29.66,2.81-.03,2.9-3.87.5-7.75.33-11.61.09-.68-6.06-1.26-11.79-.02-17.67,3.82-.29,7.9-.23,11.36-.05.68.62.67,2.79.02,3.17-1.87.76-4.59-.32-6.65.78-.94.5-.72,2.02-.3,2.55,1.98,2.45,5.62-1.75,5.82,2.97Z"/>
  <path class="cls-8" d="M239.7,577.39c-1.81-6.55-5.76-10.48-12.72-11.59,7.41-.95,10.43-5.54,12.34-12.61,1.37,7.44,5.55,11.6,12.48,12.12-6.75,2.18-10.83,4.6-12.1,12.08Z"/>
  <path class="cls-8" d="M780.21,709.66c-1.81,3.54-6.39,3.99-9.44,2.81-3.66-1.42-4.85-5.18-4.56-9.23.25-3.44,1.52-6.38,4.4-7.85,2.82-1.43,6.9-1.07,8.99,1.9,2.41,3.42,2.69,8.3.6,12.37ZM776.79,700.2c-.46-1.38-1.68-2.16-2.8-2.18-4.16-.05-4.21,6.98-2.8,9.98.56,1.19,1.91,1.78,2.75,1.75,4.02-.14,3.84-6.6,2.85-9.56Z"/>
  <path class="cls-8" d="M626.49,710.94c-1.75,2.35-6.17,2.66-8.62,1.7-3.92-1.54-4.89-6.33-4.56-10.16.28-3.22,1.92-5.85,4.43-7.06,2.31-1.12,6.46-1.31,8.33.97,3.19,3.88,3.59,10.3.42,14.56ZM623.89,700.21c-.48-1.42-1.7-2.17-2.82-2.2-4.02-.12-4.4,6.46-2.9,9.93.54,1.25,1.87,1.85,2.84,1.83,3.86-.08,3.97-6.37,2.88-9.56Z"/>
  <path class="cls-3" d="M404.79,703.9c.39,3.42-7.02-.86-7,3.47.02,4.91,10.16-1.75,8.09,5.21-3.9.41-7.69.4-11.7-.01l-.12-17.61,11.73-.17c.25,1.29.2,2.17,0,3.39-2.95.71-7.62-1.06-7.97,1.69-.59,4.66,6.51.07,6.96,4.03Z"/>
  <path class="cls-8" d="M826.57,708.02c-1.81,3.78-4.58,5.27-8.37,5.11-5.23-.22-8-7.95-6.06-12.75,1.25-3.09,3.27-5.32,6.23-5.69,3.68-.46,6.12,1.31,7.93,4.46,1.65,2.86,1.83,5.62.27,8.87ZM822.45,707.5c1.06-3.41.68-9.33-2.77-9.47-.88-.04-2.19.08-2.77,1.27-1.45,2.97-1.65,7.01.49,9.68,1.42,1.77,4.17.59,5.05-1.48Z"/>
  <path class="cls-5" d="M683.71,621.18c0-.18.09-.36.06-.54-.94-7.15-8.14-13.46-15.09-16.32.47-.73,1.25-1.12,2.04-1.42,10.61,1.57,19.57,7.66,22.71,17.86-3.36,1.12-6.63.23-9.72.42Z"/>
  <path class="cls-8" d="M686.32,712.76c-2.57-.21-1.35-4.24-5.19-4.08-4.71.19-2.82,3.79-4.73,4.02-.96.11-2.31.26-2.64-.36-.57-1.04-.06-2.17.33-3.24l5.04-13.99c.98-.61,3.51-.62,4.38.1,1.85,5.37,4.4,10.89,5.6,16.63.24,1.16-2.04.97-2.78.91ZM682.66,705.15c-.55-2.17-.87-3.38-1.71-4.56-.96,1.66-1.48,3.02-1.62,4.73,1.26.31,2.31.4,3.34-.16Z"/>
  <path class="cls-8" d="M569.67,710.26c-1.26-2.11-5.17-2.09-6.48-.07-.65,1-.61,2.34-1.35,2.53-.66.17-2.97.17-2.86-.52,1.57-5.77,2.9-11.39,5.46-16.89.66-1.32,3.94-.28,5.09-.27.77,6.2,3.78,11.01,4.87,16.86.2,1.07-2.05.87-2.86.91-.97.05-1.19-1.41-1.87-2.54ZM567.93,704.69c-.69-2.23-.92-3.18-1.66-4.14-.96,1.71-1.35,3.12-1.71,4.82,1.51.26,2.55.53,3.36-.68Z"/>
  <path class="cls-8" d="M425.11,703.67c.41,3.17,4.17,5.32,3.89,8.58-.07.81-2.35.58-3.29.46-1.75-.23-1.98-4.48-3.9-4.65s-2.53,4.27-4,4.59c-1.61.36-2.98.44-3.78-.73,2.51-2.39,3.43-5.39,5.5-7.92-1.18-3.34-3.31-5.52-4.12-8.9,1.59-.41,2.92-.46,4.28-.56.85,1.9,1.29,3.9,2.89,5.02,1.11-1.48,1.51-2.74,2.43-4.11.61-.9,3.43-1.03,3.43.09,0,2.9-3.73,4.98-3.33,8.13Z"/>
  <path class="cls-2" d="M398.95,656.16c1.96.46,4.05,2.53,6.06.82l1.47.02c-.23.82,1.08.72,1.46,1.28-9.78,2.16-19.87,0-28.41-5.81.95-4.51,1.33-8.33,3.22-12.71,2.61,8.4,8.33,14.55,16.21,16.39Z"/>
  <path class="cls-3" d="M643.62,701.8c2.22,1.28,3.98.08,5.51.19-.56,1.68,0,2.62-.43,3.4-.51.92-3.27-.28-5.01.83-1.52.97-.05,5.57-1.15,6.27-.75.48-2.63.52-3.36-.18l-.04-17.42c3.87-.49,7.05.49,11.32-.5.09.65.56,3.06-.31,3.66-1.73,1.13-4,.02-6.32.52-.96.2-1.4,2.54-.21,3.22Z"/>
  <path class="cls-3" d="M728.82,711.94c-.22,1.19-3.99,1.23-4.03.16l-.58-12.64c-.07-1.44-2.46-.89-3.59-1.25-.98-.31-.58-1.97-.46-3.24l12.97-.51c-.19,1.78.02,2.61-.3,3.57-.24.71-2.8.05-3.16.88-1.76,3.98.03,8.29-.85,13.02Z"/>
  <path class="cls-8" d="M874.51,695.15l-5.38,10.6c-.97,1.9.1,4.29-.33,6.67-1.29.69-2.73.26-4.47.49,2.48-7.62-2.47-10.87-4.88-17.35.52-1.23,3.42-1.05,4.34-.1,1.55,1.61,1.66,3.7,3.52,5.42l3.76-5.78c.48-.73,2.29-.48,3.45.06Z"/>
  <path class="cls-9" d="M683.77,620.65c.02.17-.06.36-.06.54-1.17.07-2.42,1.32-3.89,1.49,6.72,2.36,10.61,7.65,11.6,15.4.84,6.58-4.3,14.07-10.53,17,.62-.73-.3-.77-.77-.81,5.7-2.4,9.72-8.91,10.17-14.85.48-6.42-3.59-13.08-9.64-14.83-2.78-.8-6.06-.14-8.76.01-5.12.3-8.87,7.9-24.69,5.97-.09-.47.47-1.03.56-1.48,15.44,2.99,20.9-8.08,36.01-8.44Z"/>
  <path class="cls-1" d="M293.77,699.16c.14,4.64.77,8.75-.16,13.09-.22,1.01-3.69.94-3.88-.06l-.44-13.34c-1.24-.74-2.67-.02-4.04-.56-.73-.29-.74-2.69-.04-3.19,3.98-.65,8.52-.16,12.66-.3.22,1.08.64,2.97-.13,3.2l-3.97,1.16Z"/>
  <path class="cls-8" d="M445.43,712.27c-.04.86-2.64.52-3.65.33-.31-3.81-.08-7.55-.1-11.61s-4.31-1.16-4.5-4.07c-.26-3.99,7.92-1.54,12.78-1.99.65.58.72,2.73.06,3.14-1.04.65-2.59.08-4.04.79l-.56,13.41Z"/>
  <path class="cls-8" d="M797.41,709.08c1.25.59,3.62-.76,5.35.07.77.37.88,2.87.14,3.27-3.23.77-7.18.42-10.84.14l-.06-16.72c0-1.42,3.71-1.56,3.88-.25.8,6.06-.99,12.3,1.52,13.48Z"/>
  <path class="cls-4" d="M887.09,583.74c2.95-1.15,6,.19,7.12,2.82,1.06,2.49-.19,5.6-2.35,6.67-2.66,1.32-6.28.53-7.36-1.8-1.29-2.8-.46-6.5,2.59-7.68Z"/>
  <path class="cls-4" d="M812.5,648.37c3.02-1.11,5.81.09,6.92,2.46s-.09,5.42-2.65,6.58c-2.06.93-5.19.13-6.36-1.75-1.51-2.44-.98-6.17,2.09-7.3Z"/>
  <path class="cls-9" d="M854.62,650.78l-.05-.71c6.77-8.6,8.04-20.44,1.46-29.7-3.1.06-6.4-.03-9.78,1.08-.35-.32-.42-.75-.06-1.1,2.19-1.16,4.68-.91,7.06-2-2.12-1.45-3.91-2.02-5.4-2.77v-.8c2.74.95,6.05,1.18,8.23,3.81,8.27,9.97,6.83,22.54-1.46,32.21Z"/>
  <path class="cls-1" d="M588.03,711.95c-.04,1.2-3.68,1.28-3.74.3-.35-5.66-.3-10.91.01-16.61.06-1.04,2.74-.87,3.74-.71.17,5.56.2,10.76-.01,17.01Z"/>
  <path class="cls-9" d="M597.03,632.82c-.73-2.26-1.9-5.31-.34-7.44,3.93-5.37,2.28-14.18,13.94-21.42.85-.53,1.32.31,1.45,1.42-9.86,4.51-13.02,18.31-15.04,27.44Z"/>
  <path class="cls-7" d="M843.4,606.61c.3.33-.01,1.02-.19,1.41-.6,1.31-2.81,3.56-1.19,5.13,1.49,1.45,4.16,1.03,5.84,1.61v.8c-3.49-.04-7.43-.16-11.21.7-1.16-5.88,3.71-7.32,6.75-9.64Z"/>
  <path class="cls-9" d="M790.25,656.88l.06-1.37c6.67-4.19,9.95-10.7,12.6-18.85.57,4.83-2.22,9.01-4.2,12.88-2.11,3.87-5.02,5.9-8.45,7.34Z"/>
  <path class="cls-9" d="M458.9,655.75v-1.13c5.28-4.7,8.02-10.57,10.64-17.93-.1,8.07-4.63,15.02-10.64,19.06Z"/>
  <path class="cls-9" d="M743.76,608.05c-.2.34-.22,1.4.46.86-1.51,3.47-13.94,14.83-12.55,17.3-.92-1.24-2.76-1.68-2.89-3.14,1.39.36,2.72-.25,3.76-1.55l8.97-11.24c.77-.97.87-2.57,2.25-2.23Z"/>
  <path class="cls-9" d="M494.74,603.8c.26.84.96,1.4,1.67,1.89-4.01.82-7.3,3.25-8.62,7.53l-1.41,4.57c-1.06-2.3-.27-4.92-.15-7.37,4.95-3.36-.91-2.74,8.52-6.62Z"/>
  <path class="cls-9" d="M407.94,658.28c-.37-.56-1.69-.46-1.46-1.28,5.73.08,11.6-2.9,13.63-8.51,1-.05,1.97-.31,2.85-.77-2.66,6.28-8.62,9.15-15.03,10.56Z"/>
  <path class="cls-9" d="M860.51,603.51l-.13,1.22c-5.95-2.18-12.21-.5-17.17,3.29.18-.39.49-1.08.19-1.41,5.17-3.95,11.13-4.58,17.11-3.1Z"/>
  <path class="cls-7" d="M744.22,608.91c-.68.54-.66-.52-.46-.86.46-.79,1.04-1.67.82-2.65-.27-1.17-2.02-.32-2.75-2.38,3.67.28,7.03-.26,10.59.38l-8.2,5.51Z"/>
  <path class="cls-7" d="M707.61,652.89c-.98,1.51-.57,2.97,1.04,4.74-3.69.72-6.68.1-10.35.37,1.05-2.37,3.06-1.21,4.24-2.43,1.38-1.42,3.19-2.32,4.58-3.16.37-.15.44.2.48.48Z"/>
  <path class="cls-3" d="M464.69,706.96c-2.04,1.19-5.3.97-7.21.11-.49-.23-.48-1.77-.15-2.19.79-1.02,5.51-.65,6.22-.65.79,0,1.58,1.85,1.14,2.73Z"/>
  <path class="cls-9" d="M725.88,632.8c-1.79-.79-9.28,10.73-12.04,12.6.11-3.91,3.99-4.59,4.81-7.77l5.65-5.77c.8.39,1.3.57,1.58.94Z"/>
  <path class="cls-2" d="M524.66,497.94c-1.1,1.62-5.06.33-5.28-1.46-.1-.81.37-1.54,1.24-2.21.94-.72,2.83-1.05,3.75-.21.76.69,1.03,2.78.29,3.87Z"/>
  <path class="cls-9" d="M670.72,602.9c-.79.3-1.57.69-2.04,1.42-3.53-1.45-10.28.81-13.51,2.37l-.8-.16c5.13-3.36,10.8-4.45,16.35-3.63Z"/>
  <path class="cls-2" d="M412.06,308.55c-1.14.67-2.66.74-3.49.2-1.43-.94-.99-2.8-.27-3.71,1.09-1.36,2.47-1.03,3.51-.39,1.41.87,1.95,2.9.24,3.9Z"/>
  <path class="cls-2" d="M504.48,576.18c-1.64.2-3.01-.26-3.21-1.65-.25-1.74.66-2.76,2.71-2.92,1.54-.12,2.36.4,2.47,1.66s-.35,2.72-1.97,2.92Z"/>
  <path class="cls-7" d="M284.17,329.49c.07,1.91-1.63,2.61-2.64,2.75-1.47.21-2.3-1.17-2.35-2.14-.09-1.56.79-2.56,2.35-2.89.72-.15,1.4-.21,1.88.09.42.26.7.94.75,2.19Z"/>
  <path class="cls-2" d="M471.99,353.48c1.4-.79,3.1-.4,3.48,1.06.27,1.05.27,2.58-.79,3.31-1,.68-2.83.54-3.65-.63-.61-.87-.43-2.96.96-3.74Z"/>
  <path class="cls-7" d="M470.93,464.44c-1.06,2.07-3.45,1.03-4.04.02-.77-1.32.06-4.47,2.09-4.52,1.28-.02,2.68,3.09,1.96,4.5Z"/>
  <path class="cls-7" d="M454.01,416.56c-.33,1.47-2.8.91-3.67.16s-1.38-2.41-.28-3.5c.82-.81,2.12-.69,2.99-.52,1.14.22,1.4,1.86.96,3.86Z"/>
  <path class="cls-9" d="M551.96,602.13l-.13,1.42c-4.67-.33-9.23.67-12.86,4.45-.03-.56-.08-1.22-.63-1.5,4.16-3.04,8.84-4.53,13.61-4.37Z"/>
  <path class="cls-7" d="M528.89,410.64c1.39-.6,2.71-.21,3.2.68.63,1.15.8,2.64-.09,3.25-1.24.84-3.11.84-3.57-.18s-.67-3.26.47-3.75Z"/>
  <path class="cls-7" d="M325.85,293.58c-1.87-.2-1.74-2.4-1.44-3.65.23-.93,1.73-1.92,3.14-1.52.98.28.84,1.92.89,2.71.06,1.01-.58,2.68-2.59,2.46Z"/>
  <path class="cls-7" d="M362.7,326.63c-2.31.37-2.66-1.72-2.43-3.06.16-.92,1.46-2.11,2.99-1.32,1.33.68,1.41,4.06-.56,4.38Z"/>
  <path class="cls-7" d="M421.68,507.35c1.1-.25,2.15.4,2.73,1.25.63.93-.41,2.04-1.19,2.51-1.19.72-2.43.3-2.69-.64-.38-1.35-.27-2.79,1.16-3.12Z"/>
  <path class="cls-7" d="M416.6,363.43c-2.2.29-2.34-1.29-2.35-2.48,0-.95.28-2.27,1.85-2.25,1.14.01,1.57,1.08,1.72,1.82.19.91.49,2.7-1.23,2.92Z"/>
  <path class="cls-9" d="M565.46,652.96l1.36.55c-11.67,6.24-6.72,2.87-11.64,3.68.59-.46-.03-.73-.39-.95,3.74.18,6.94-1,10.67-3.28Z"/>
  <path class="cls-7" d="M422.63,486.22c-.05,1.4-1.33,2.14-2.1,1.95-1.13-.27-1.77-1.67-1.46-2.82s1.12-1.77,1.97-1.71c1.1.08,1.65.83,1.59,2.57Z"/>
  <path class="cls-7" d="M424.74,458.67c1.31-.26,2.12.6,2.23,1.37.19,1.31-.28,2.01-1.23,2.58-1.02.61-1.86-.14-2.18-1-.47-1.26-.3-2.65,1.19-2.95Z"/>
  <path class="cls-7" d="M415.74,415.05c1.4-.12,1.66,1.31,1.6,2.1-.1,1.29-.89,1.92-1.73,2.08-1.43.27-2.06-.69-2.13-1.45-.15-1.62.72-2.59,2.26-2.72Z"/>
  <path class="cls-7" d="M438.1,482.73c1.45-.61,2.6-.07,2.94.89s-.23,2.12-.86,2.52c-.97.6-2.17.14-2.93-.72-.52-.59-.6-2.07.86-2.69Z"/>
  <path class="cls-7" d="M476.36,528.81c-.34,1.26-2.21.77-2.82.25-.85-.73-1.74-2.67-.44-3.55.83-.56,1.91.07,2.41.39.54.35,1.24,1.49.85,2.9Z"/>
  <path class="cls-7" d="M370.05,390.37c1.11-.33,2.23.06,2.67.59.7.84.54,2.49-.2,2.86-1.07.54-2.62.42-3.12-.35-.61-.93-.57-2.74.65-3.1Z"/>
  <path class="cls-7" d="M349.7,383.76c.93-.77,2.33-.6,2.99-.1.77.59.12,2.2-.58,2.93-.43.45-1.43.65-2.24.17-.65-.38-1.1-2.22-.17-3Z"/>
  <path class="cls-7" d="M298.02,365.55c1.01-.37,2.22-.45,2.95.29.67.68.6,2.31-.45,2.8-.74.35-2.29.8-2.87-.02-.61-.86-.83-2.65.37-3.08Z"/>
  <path class="cls-7" d="M329.16,361.17c.77-.53,2.09-.5,2.43.17.49.94.5,2.27-.35,2.93-.77.59-2.06.98-2.61-.35-.32-.77-.64-1.94.53-2.74Z"/>
  <path class="cls-7" d="M323.58,383.58c1.15-.3,1.98.33,2.27.92.52,1.09.24,2.4-.88,2.74-1,.3-2.49.33-2.69-1.07-.11-.77.03-2.25,1.3-2.59Z"/>
  <path class="cls-7" d="M358.16,366.8c-1.7-.38-.86-1.68-.48-2.79s1.47-1.14,2.42-.81c.75.26,1.11,1.18.93,2.03-.21,1.02-1.14,1.96-2.86,1.58Z"/>
  <path class="cls-7" d="M419.48,529.66c1.04-.45,2.1.14,2.4.79.54,1.15.12,2.38-1.12,2.76-.77.24-2.01.29-2.62-.86-.43-.81.24-2.21,1.34-2.69Z"/>
  <path class="cls-7" d="M401.93,428.75c-1.25.72-2.38.08-2.85-.42-.51-.54-1.04-1.9-.17-2.52.81-.58,2.19-.4,2.7-.02.66.5,1.26,2.42.32,2.96Z"/>
  <path class="cls-7" d="M408.26,551.18c-.88-.19-1.58-.66-1.71-1.3-.22-1.02.62-1.72,1.67-1.96.86-.2,1.53.14,1.96.51.6.52.92,1.2.4,2.02-.35.55-1.28.96-2.32.73Z"/>
  <path class="cls-7" d="M428.69,561.73c-1.55.44-2.75-.47-3.02-2.04-.17-.96.94-1.42,1.55-1.44.97-.03,1.86.39,2.02.98.27.94.37,2.24-.56,2.5Z"/>
  <path class="cls-7" d="M396.65,359.06c-.62.67-2.06-.41-2.36-1.03-.46-.95.05-2.67,1.21-2.93,1.06-.24,1.62.49,1.93,1.22.25.58.34,1.53-.78,2.75Z"/>
  <path class="cls-9" d="M707.61,652.89c-.04-.28-.11-.63-.48-.48,1.68-2.68,3.6-5.14,6.58-7.37-1.39,3.59-3.84,5.69-6.1,7.85Z"/>
  <path class="cls-7" d="M441.17,535.09c1.24-.28,2.25-.04,2.46.77.25.95.18,2.13-.49,2.51-.84.47-2.12.35-2.45-.23-.59-1.05-.8-2.75.48-3.04Z"/>
  <path class="cls-7" d="M418.7,445.97c-1.24-.49-1.58-1.34-1.18-2.28.23-.54,1.22-.96,2.09-.79,1.1.21,1.76.91,1.74,1.95s-1.01,1.76-2.64,1.12Z"/>
  <path class="cls-7" d="M407.82,581.35c-.66.69-2,.15-2.43-.29-.39-.4-1.08-1.26-.66-2.17s1.85-.72,2.54-.43c.85.35,1.55,1.85.54,2.9Z"/>
  <path class="cls-7" d="M335.22,340.98c.76-.65,2-.45,2.46.17.68.9.59,1.9-.15,2.54s-1.67.83-2.3.4c-1.19-.81-.88-2.37-.02-3.11Z"/>
  <path class="cls-7" d="M384.99,372.33c1.01-.3,1.87.28,2.1,1.09.27.95-.28,1.98-.96,2.2-1.13.36-2.41.36-2.49-.67-.09-1.15.15-2.26,1.36-2.62Z"/>
  <path class="cls-7" d="M387.25,409.98c-1.15.51-1.75-1.14-1.71-1.84.05-.97.54-2.07,1.81-2.04.76.02,1.25.89,1.32,1.53s-.2,1.82-1.43,2.36Z"/>
  <path class="cls-7" d="M378.95,594.2c1.15-.59,2.09-.17,2.51.65s.31,2.25-.65,2.67c-.62.26-1.71-.12-2.59-.99-.59-.58-.69-1.59.74-2.32Z"/>
  <path class="cls-7" d="M389.42,566.29c-.06,1.11-1.26,1.29-2.05,1.18s-2-.81-1.73-2.28c.22-1.24,1.55-1.02,2.24-.96.82.07,1.61.74,1.54,2.06Z"/>
  <path class="cls-7" d="M367.31,578.88c.45-.84,1.75-.64,2.31-.31s.7,1.53.33,2.2c-.24.44-1.4.81-1.93.59-.67-.28-1.17-1.62-.71-2.48Z"/>
  <path class="cls-7" d="M460.58,541.81c.99-.52,1.68.26,1.86.77.25.7.38,2.2-.47,2.54-.78.31-1.36-.07-1.76-.45-.52-.49-.98-2.15.37-2.85Z"/>
  <path class="cls-9" d="M478.23,603.11c-.43,1.63.02,3.29.02,4.94-1.72.54-.26-2.1-2.63-4.54.97-.54,1.8-.38,2.61-.39Z"/>
  <path class="cls-9" d="M620.2,603.32c-2.34.01-4.7.43-7.06.14-1.47-2.3,8.92-1.9,7.06-.14Z"/>
  <path class="cls-9" d="M405.01,656.98c-2.02,1.71-4.11-.36-6.06-.82,2.02.16,4.86-1.2,6.06.82Z"/>
  <path class="cls-9" d="M485.79,605.06c-1.07.14-1.46-.99-1.44-1.9.44.08,1.18-.04,1.62.4.34.34-.25,1.11-.19,1.5Z"/>
  <path class="cls-9" d="M560.14,603.47c-1.59-.07-3.29-.23-4.56-1.25,2.24-.58,3.84-.17,4.56,1.25Z"/>
  <path class="cls-9" d="M478.2,651.51c-.17-.32-.51-.62-.32-.96.16-.29.32-.52.48-.71.4-.2.77-.08,1.15.15.34.21.61.62.38,1.13-.27.6-1.12.39-1.69.38Z"/>
  <path class="cls-9" d="M503.92,606.45c-.86.08-2.23.33-2.3-.85.39-.26.83-.63,1.22-.63.79,0,1.69.73,1.09,1.48Z"/>
  <path class="cls-2" d="M385.34,620.82c-.18-1.44-1.63-3.22.05-4.55.12,1.51.11,3.03-.05,4.55Z"/>
  <path class="cls-9" d="M587.23,602.99c.11.61-.33,1.45-.1,2.03-.33-.07-.89.15-1.2-.01-.57-.3-.49-1.24-.34-1.85.19-.77,1.15-.23,1.64-.16Z"/>
  <path class="cls-9" d="M478.17,652.83c.24.99-.07,2.5-1.28,2.52.12-.46-.11-1.32.12-1.78.18-.36.49-1.19,1.16-.74Z"/>
  <path class="cls-9" d="M487.37,654.65c-.6.46-1.23-.14-1.43-.63-.27-.64.2-1.23.2-1.76,1.05.33,1.09,1.46,1.23,2.39Z"/>
  <path class="cls-9" d="M458.24,654.62c-.03,1.22-1.74.32-2.38.65.42-.93,1.53-.66,2.38-.65Z"/>
  <path class="cls-9" d="M596.6,612.51c-.44.13-.48-.16-.51-.49-.04-.47-.08-1.14.51-1.01.04.49.03,1.01,0,1.5Z"/>
  <path class="cls-9" d="M596.62,650.01c-.43.13-.48-.16-.52-.49-.06-.47-.09-1.14.5-1.01l.02,1.5Z"/>
  <path class="cls-9" d="M506.86,608.86c-1.03-.49-1.78-1.37-2.27-2.38,1,.45,1.95,1.29,2.27,2.38Z"/>
  <path class="cls-9" d="M596.6,604.32c-.54.27-.47-.53-.56-.85.54.14.63.32.56.85Z"/>
  <path class="cls-9" d="M596.8,652.31c-.67.24-.6-.56-.18-.8.02.27.17.53.18.8Z"/>
  <path class="cls-9" d="M728.65,622.34c-.37-.15-.61-.47-.74-.84.15.17.38.36.74.84Z"/>
  <path class="cls-9" d="M482.14,602.97c.26-.03.55-.03.81,0,.12.76-.88.71-.81,0Z"/>
  <path class="cls-9" d="M617.03,606.3c-.28-.05-.55-.34-.79-.49.35-.04.71.12.79.49Z"/>
  <path class="cls-9" d="M844.07,620.81c-.23-.62.38-1.03.85-.54l-.85.54Z"/>
</svg>