<svg xmlns="http://www.w3.org/2000/svg" viewBox="0 0 900 380" fill="none" aria-hidden="true">
  <defs>
    <linearGradient id="dwGrad" x1="0" y1="190" x2="900" y2="190" gradientUnits="userSpaceOnUse">
      <stop offset="0" stop-color="#c4a8f0" stop-opacity="0.85"/>
      <stop offset="0.35" stop-color="#b5acf2" stop-opacity="0.8"/>
      <stop offset="0.65" stop-color="#9ec4f2" stop-opacity="0.78"/>
      <stop offset="1" stop-color="#88d4f4" stop-opacity="0.82"/>
    </linearGradient>
    <radialGradient id="dwHub" cx="50%" cy="50%" r="50%">
      <stop offset="0" stop-color="white" stop-opacity="0"/>
      <stop offset="0.42" stop-color="white" stop-opacity="0"/>
      <stop offset="0.72" stop-color="white" stop-opacity="0.35"/>
      <stop offset="1" stop-color="white" stop-opacity="1"/>
    </radialGradient>
    <mask id="dwEdgeFade">
      <rect width="900" height="380" fill="url(#dwHub)"/>
    </mask>
  </defs>
  <g mask="url(#dwEdgeFade)" stroke="url(#dwGrad)" stroke-linecap="round" opacity="0.88">
  <!-- Horizontal wave bands -->
  <path d="M0 188 C80 168 160 208 240 188 S400 168 480 188 S640 208 720 188 S820 178 900 188" stroke-width="1"/>
  <path d="M0 198 C90 178 180 218 270 198 S450 178 540 198 S720 218 810 198 S860 188 900 198" stroke-width="0.95"/>
  <path d="M0 178 C70 158 150 198 230 178 S410 158 500 178 S680 198 770 178 S850 168 900 178" stroke-width="0.95"/>
  <path d="M0 208 C100 188 200 228 300 208 S500 188 600 208 S780 228 870 208 900 208" stroke-width="0.85"/>
  <path d="M0 168 C60 148 140 188 220 168 S400 148 500 168 S700 188 800 168 900 168" stroke-width="0.85"/>
  <!-- Starburst / spirograph hub behind phone -->
  <g transform="translate(450 190)">
    <ellipse cx="0" cy="0" rx="165" ry="55" stroke-width="1"/>
    <ellipse cx="0" cy="0" rx="145" ry="48" stroke-width="0.95"/>
    <ellipse cx="0" cy="0" rx="125" ry="40" stroke-width="0.95"/>
    <ellipse cx="0" cy="0" rx="105" ry="33" stroke-width="0.9"/>
    <ellipse cx="0" cy="0" rx="85" ry="26" stroke-width="0.9"/>
    <ellipse cx="0" cy="0" rx="65" ry="20" stroke-width="0.85"/>
    <ellipse cx="0" cy="0" rx="175" ry="58" transform="rotate(15)" stroke-width="0.95"/>
    <ellipse cx="0" cy="0" rx="155" ry="50" transform="rotate(15)" stroke-width="0.9"/>
    <ellipse cx="0" cy="0" rx="135" ry="42" transform="rotate(15)" stroke-width="0.9"/>
    <ellipse cx="0" cy="0" rx="175" ry="58" transform="rotate(-15)" stroke-width="0.95"/>
    <ellipse cx="0" cy="0" rx="155" ry="50" transform="rotate(-15)" stroke-width="0.9"/>
    <ellipse cx="0" cy="0" rx="135" ry="42" transform="rotate(-15)" stroke-width="0.9"/>
    <ellipse cx="0" cy="0" rx="168" ry="56" transform="rotate(30)" stroke-width="0.9"/>
    <ellipse cx="0" cy="0" rx="148" ry="46" transform="rotate(30)" stroke-width="0.85"/>
    <ellipse cx="0" cy="0" rx="168" ry="56" transform="rotate(-30)" stroke-width="0.9"/>
    <ellipse cx="0" cy="0" rx="148" ry="46" transform="rotate(-30)" stroke-width="0.85"/>
    <ellipse cx="0" cy="0" rx="160" ry="52" transform="rotate(45)" stroke-width="0.85"/>
    <ellipse cx="0" cy="0" rx="140" ry="44" transform="rotate(45)" stroke-width="0.8"/>
    <ellipse cx="0" cy="0" rx="160" ry="52" transform="rotate(-45)" stroke-width="0.85"/>
    <ellipse cx="0" cy="0" rx="140" ry="44" transform="rotate(-45)" stroke-width="0.8"/>
    <path d="M-200 0 C-120 -35 -40 35 40 0 S120 -35 200 0" stroke-width="0.9"/>
    <path d="M-200 0 C-120 35 -40 -35 40 0 S120 35 200 0" stroke-width="0.9"/>
    <path d="M-180 -20 C-100 -55 -20 15 60 -20 S140 -55 180 -20" stroke-width="0.85"/>
    <path d="M-180 20 C-100 55 -20 -15 60 20 S140 55 180 20" stroke-width="0.85"/>
  </g>
  </g>
</svg>
