<svg xmlns="http://www.w3.org/2000/svg" width="400" height="400" viewBox="0 0 400 400">
  <g fill="#ffffff" opacity="0.5">
    <circle cx="28" cy="58" r="1.2"/><circle cx="92" cy="22" r="0.9"/><circle cx="168" cy="48" r="1.4"/>
    <circle cx="232" cy="32" r="1"/><circle cx="318" cy="60" r="1.2"/><circle cx="352" cy="118" r="0.9"/>
    <circle cx="52" cy="132" r="1.1"/><circle cx="138" cy="98" r="1.3"/><circle cx="206" cy="142" r="0.95"/>
    <circle cx="278" cy="112" r="1.2"/><circle cx="46" cy="208" r="1"/><circle cx="122" cy="182" r="1.2"/>
    <circle cx="190" cy="218" r="1.4"/><circle cx="262" cy="192" r="0.9"/><circle cx="336" cy="224" r="1.1"/>
    <circle cx="76" cy="278" r="1.2"/><circle cx="152" cy="254" r="0.9"/><circle cx="230" cy="292" r="1.3"/>
    <circle cx="302" cy="268" r="1"/><circle cx="18" cy="316" r="1.1"/><circle cx="182" cy="332" r="1"/>
    <circle cx="48" cy="148" r="0.85"/><circle cx="288" cy="348" r="1.1"/><circle cx="360" cy="188" r="0.9"/>
  </g>
  <g fill="#f4a0c4" opacity="0.92">
    <circle cx="58" cy="40" r="1.8"/><circle cx="132" cy="66" r="1.4"/><circle cx="214" cy="28" r="2"/>
    <circle cx="296" cy="76" r="1.6"/><circle cx="36" cy="100" r="1.5"/><circle cx="114" cy="136" r="1.9"/>
    <circle cx="178" cy="92" r="1.3"/><circle cx="256" cy="152" r="1.8"/><circle cx="326" cy="96" r="1.5"/>
    <circle cx="68" cy="172" r="1.7"/><circle cx="146" cy="208" r="2"/><circle cx="218" cy="176" r="1.4"/>
    <circle cx="296" cy="212" r="1.8"/><circle cx="24" cy="244" r="1.5"/><circle cx="100" cy="272" r="1.9"/>
    <circle cx="174" cy="240" r="1.3"/><circle cx="252" cy="256" r="1.7"/><circle cx="328" cy="284" r="1.9"/>
    <circle cx="56" cy="316" r="1.4"/><circle cx="134" cy="344" r="2"/><circle cx="216" cy="312" r="1.5"/>
    <circle cx="294" cy="336" r="1.7"/><circle cx="348" cy="172" r="1.3"/><circle cx="372" cy="48" r="1.6"/>
  </g>
  <g fill="#d07098" opacity="0.78">
    <circle cx="82" cy="62" r="1.1"/><circle cx="172" cy="122" r="1.4"/><circle cx="246" cy="68" r="1"/>
    <circle cx="322" cy="140" r="1.2"/><circle cx="48" cy="156" r="1.3"/><circle cx="126" cy="52" r="0.95"/>
    <circle cx="198" cy="196" r="1.5"/><circle cx="282" cy="236" r="1.1"/><circle cx="94" cy="232" r="1.2"/>
    <circle cx="162" cy="292" r="1"/><circle cx="238" cy="124" r="1.3"/><circle cx="318" cy="52" r="1.1"/>
    <circle cx="32" cy="184" r="1.4"/><circle cx="206" cy="272" r="0.95"/><circle cx="278" cy="308" r="1.2"/>
    <circle cx="356" cy="248" r="1.1"/><circle cx="12" cy="88" r="1.2"/>
  </g>
  <g fill="#e8b8f0" opacity="0.82">
    <circle cx="108" cy="88" r="1.6"/><circle cx="188" cy="56" r="1.2"/><circle cx="272" cy="168" r="1.5"/>
    <circle cx="40" cy="272" r="1.3"/><circle cx="156" cy="152" r="1.8"/><circle cx="236" cy="48" r="1.1"/>
    <circle cx="318" cy="252" r="1.4"/><circle cx="72" cy="128" r="1"/><circle cx="264" cy="332" r="1.6"/>
    <circle cx="340" cy="118" r="1.2"/><circle cx="196" cy="348" r="1.3"/>
  </g>
</svg>
